<svg width="31" height="38" viewBox="0 0 31 38" fill="none" xmlns="http://www.w3.org/2000/svg">
<g filter="url(#filter0_d_11135_3486)">
<path d="M20.8269 22.3452C20.8269 21.5362 20.171 20.8804 19.362 20.8804H13.5C13.5497 20.8187 13.6026 20.7594 13.6586 20.7031C15.8239 18.5394 20.3977 13.9671 20.3977 13.9671C20.6725 13.6924 20.827 13.3197 20.827 12.9312V12.1467C20.827 9.17607 18.4103 6.75928 15.4396 6.75928C12.4396 6.75928 10.0522 9.19014 10.0522 12.145V12.1466C10.0522 12.9556 10.7081 13.6106 11.5171 13.6106C12.3261 13.6106 12.9819 12.954 12.9819 12.145C12.9819 10.8022 14.0631 9.68897 15.4396 9.68897C16.7948 9.68897 17.8973 10.7915 17.8973 12.1467V12.3242C16.7095 13.5116 13.35 16.8698 11.5846 18.6341C10.6106 19.6133 10.0522 20.966 10.0522 22.3452C10.0522 23.1542 10.7081 23.8101 11.5171 23.8101H19.3621C20.171 23.8101 20.8269 23.1543 20.8269 22.3452Z" fill="white"/>
</g>
<defs>
<filter id="filter0_d_11135_3486" x="0.0522461" y="0.759277" width="30.7747" height="37.0508" filterUnits="userSpaceOnUse" color-interpolation-filters="sRGB">
<feFlood flood-opacity="0" result="BackgroundImageFix"/>
<feColorMatrix in="SourceAlpha" type="matrix" values="0 0 0 0 0 0 0 0 0 0 0 0 0 0 0 0 0 0 127 0" result="hardAlpha"/>
<feOffset dy="4"/>
<feGaussianBlur stdDeviation="5"/>
<feComposite in2="hardAlpha" operator="out"/>
<feColorMatrix type="matrix" values="0 0 0 0 0 0 0 0 0 0 0 0 0 0 0 0 0 0 0.2 0"/>
<feBlend mode="normal" in2="BackgroundImageFix" result="effect1_dropShadow_11135_3486"/>
<feBlend mode="normal" in="SourceGraphic" in2="effect1_dropShadow_11135_3486" result="shape"/>
</filter>
</defs>
</svg>
