<svg width="33" height="38" viewBox="0 0 33 38" fill="none" xmlns="http://www.w3.org/2000/svg">
<g filter="url(#filter0_d_11135_3485)">
<path d="M20.2593 6.87063C19.7121 6.64388 19.082 6.76907 18.663 7.18802C18.6629 7.18802 14.0895 11.76 11.9211 13.9268C10.9472 14.906 10.3887 16.2587 10.3887 17.638C10.3887 18.447 11.0445 19.1029 11.8535 19.1029H18.2338V22.345C18.2338 23.154 18.8896 23.8099 19.6986 23.8099C20.5076 23.8099 21.1635 23.154 21.1635 22.345V19.1029H21.2676C22.0766 19.1029 22.7324 18.447 22.7324 17.638C22.7324 16.829 22.0766 16.1732 21.2676 16.1732H21.1635V8.22395C21.1635 7.63157 20.8065 7.09749 20.2593 6.87063ZM18.2338 16.1732H13.8365C13.8863 16.1115 13.9393 16.0523 13.9952 15.9959C15.0924 14.8995 16.8083 13.1845 18.2338 11.7595V16.1732Z" fill="white"/>
</g>
<defs>
<filter id="filter0_d_11135_3485" x="0.388672" y="0.759033" width="32.3438" height="37.0508" filterUnits="userSpaceOnUse" color-interpolation-filters="sRGB">
<feFlood flood-opacity="0" result="BackgroundImageFix"/>
<feColorMatrix in="SourceAlpha" type="matrix" values="0 0 0 0 0 0 0 0 0 0 0 0 0 0 0 0 0 0 127 0" result="hardAlpha"/>
<feOffset dy="4"/>
<feGaussianBlur stdDeviation="5"/>
<feComposite in2="hardAlpha" operator="out"/>
<feColorMatrix type="matrix" values="0 0 0 0 0 0 0 0 0 0 0 0 0 0 0 0 0 0 0.2 0"/>
<feBlend mode="normal" in2="BackgroundImageFix" result="effect1_dropShadow_11135_3485"/>
<feBlend mode="normal" in="SourceGraphic" in2="effect1_dropShadow_11135_3485" result="shape"/>
</filter>
</defs>
</svg>
