<svg width="71" height="71" viewBox="0 0 71 71" fill="none" xmlns="http://www.w3.org/2000/svg">
<path d="M69.389 0.500859C69.3306 0.501816 63.4505 0.605176 55.4812 1.67008C54.5651 1.79244 54.2042 2.99707 54.9285 3.59672C58.2821 6.3732 53.9707 13.0765 49.9101 9.37514C49.7219 9.20843 49.482 9.11173 49.2307 9.10135C48.9795 9.09096 48.7324 9.16752 48.5311 9.31812C47.0291 10.4097 44.8023 10.6355 43.1112 9.86678C42.8512 9.74854 42.5553 9.7367 42.2867 9.83378C42.0181 9.93087 41.7981 10.1292 41.6738 10.3863C39.8949 14.0661 33.6454 12.5313 34.4609 8.064C34.4911 7.87645 34.4726 7.68428 34.4071 7.50597C34.3415 7.32766 34.2313 7.1692 34.0868 7.04583C33.9423 6.92245 33.7686 6.83831 33.5822 6.80149C33.3959 6.76467 33.2032 6.77641 33.0226 6.83559C27.7668 8.68129 23.2062 10.9948 19.4697 13.7138C19.3488 13.8009 19.2468 13.9116 19.1698 14.0392C19.0928 14.1669 19.0424 14.3088 19.0218 14.4564C19.0011 14.604 19.0105 14.7542 19.0495 14.8981C19.0885 15.0419 19.1562 15.1764 19.2485 15.2934C21.386 17.9526 19.2116 22.41 15.8271 22.3755C15.5353 22.3748 15.2551 22.4895 15.0476 22.6947C14.8401 22.8999 14.7222 23.1788 14.7197 23.4706C14.723 26.2018 11.9424 28.3681 9.313 27.7207C9.05162 27.6562 8.77562 27.6904 8.53784 27.8166C8.30006 27.9429 8.11721 28.1525 8.02429 28.4052C4.24881 38.6738 6.81078 49.9317 9.85632 58.0513L1.14064 66.7657C-0.771508 68.6616 2.09548 71.9919 4.23431 69.8594L13.0117 61.082C17.21 62.3779 26.3371 64.7785 31.1247 64.9298V60.6563C31.1132 59.4622 31.8903 58.5315 32.7091 57.7127C33.6465 56.7754 32.1949 55.4587 31.3419 56.3293L30.1636 57.5077C27.2762 60.4494 22.4227 55.9655 25.5233 52.8673L27.8437 50.5472V46.4375C27.8417 45.8277 28.0105 45.2295 28.3311 44.7107C28.6518 44.192 29.1113 43.7735 29.6577 43.5026C31.0078 42.8278 32.6442 42.1971 33.3406 40.7305C33.7062 40.0119 33.8627 39.2051 33.7924 38.402C33.7221 37.5988 33.4277 36.8316 32.9428 36.1875C32.1586 35.1368 32.2182 33.0688 32.2182 31.7873C32.2181 31.1144 32.052 30.452 31.7345 29.8587C31.417 29.2654 30.958 28.7597 30.3982 28.3864C26.6938 25.9371 30.5469 20.5798 34.0387 22.9264C34.2901 23.094 34.5827 23.1892 34.8845 23.2015C35.1863 23.2138 35.4857 23.1428 35.7499 22.9962C36.014 22.8496 36.2327 22.6332 36.382 22.3705C36.5312 22.1079 36.6053 21.8092 36.5961 21.5073C36.595 21.4731 36.5942 21.4393 36.5939 21.4058C36.5436 16.9513 43.1564 16.9972 43.1564 21.2813C43.1564 23.2774 45.3439 25.6563 48.6251 25.6563C51.9064 25.6563 54.0939 22.9408 54.0939 21.2813C54.0939 16.8159 60.6564 17.1213 60.6564 21.2813C60.6564 21.2966 60.6564 21.3121 60.6564 21.3274C60.6538 21.6222 60.7269 21.9127 60.8688 22.1711C61.0107 22.4295 61.2166 22.6472 61.4668 22.8032C61.7169 22.9592 62.0029 23.0483 62.2974 23.0621C62.5919 23.0758 62.885 23.0136 63.1486 22.8816C64.8966 22.0203 66.9933 22.2642 67.9567 24.1708C69.4072 16.6673 70.1552 8.91111 70.499 1.64643C70.5042 1.4976 70.4792 1.34927 70.4257 1.2103C70.3722 1.07134 70.2912 0.944591 70.1876 0.837647C70.0839 0.730703 69.9598 0.645757 69.8226 0.587889C69.6854 0.530022 69.5379 0.500422 69.389 0.500859Z" fill="#00730C"/>
</svg>
