<svg width="45" height="37" viewBox="0 0 45 37" fill="none" xmlns="http://www.w3.org/2000/svg">
<path d="M44.1797 34.4141L41.2188 31.4533V26.4375C41.2188 26.2344 41.1622 26.0353 41.0555 25.8625C40.9487 25.6898 40.7959 25.5501 40.6142 25.4593L36.6661 23.4844C36.2253 21.205 34.9935 19.1546 33.1882 17.6949L36.4063 15.2813C36.5421 15.1794 36.6524 15.0473 36.7283 14.8954C36.8043 14.7435 36.8438 14.5761 36.8438 14.4063V8.42906L39.6381 6.56626C40.7428 5.82894 39.6609 3.90366 38.4247 4.74626L35.1434 6.93376C34.9936 7.03363 34.8708 7.16894 34.7858 7.32769C34.7008 7.48643 34.6563 7.6637 34.6563 7.84376V13.8594L31.207 16.4464C30.8713 16.2876 30.5268 16.1481 30.1752 16.0284L29.49 13.2305C29.0773 11.5344 28.0502 10.0516 26.6074 9.06904C29.5045 7.17945 32.4688 5.14138 32.4688 1.28126C32.4688 -0.0722535 30.2813 -0.191336 30.2813 1.28126C30.2813 5.09572 26.7897 6.30691 24.2118 8.02355C23.1671 7.78757 22.083 7.78757 21.0383 8.02355C18.5089 6.3389 14.9688 4.98525 14.9688 1.28126C14.9688 -0.0722535 12.7813 -0.191472 12.7813 1.28126C12.7813 5.28083 15.6177 7.12038 18.6401 9.07068C17.1986 10.0533 16.1725 11.5354 15.7602 13.2305L15.0749 16.0286C14.7233 16.1482 14.3788 16.2878 14.0431 16.4465L10.5938 13.8594V7.84376C10.5938 7.66371 10.5494 7.48645 10.4644 7.32771C10.3795 7.16896 10.2566 7.03364 10.1068 6.93376L6.82559 4.74626C5.61604 3.92267 4.47403 5.82374 5.61221 6.56626L8.40633 8.42906V14.4063C8.40633 14.5761 8.44586 14.7435 8.5218 14.8954C8.59774 15.0473 8.70799 15.1794 8.84383 15.2813L12.0626 17.6953C10.2574 19.1549 9.02565 21.2052 8.58475 23.4844L4.6359 25.4589C4.45418 25.5498 4.30136 25.6894 4.19457 25.8623C4.08779 26.0352 4.03126 26.2343 4.03133 26.4375V31.4533L1.07042 34.4141C0.14866 35.3181 1.52405 37.0488 2.61725 35.9609L5.8985 32.6797C6.00006 32.5781 6.08062 32.4575 6.13559 32.3248C6.19055 32.1921 6.21884 32.0499 6.21883 31.9063V27.1135L8.40633 26.0866C9.97859 23.5227 13.006 22.0625 17.1563 22.0625H28.0938C32.2442 22.0625 35.2722 23.5227 36.8438 26.0866V26.0197L39.0313 27.1135V31.9063C39.0313 32.0499 39.0596 32.1921 39.1146 32.3248C39.1695 32.4575 39.2501 32.5781 39.3516 32.6797L42.6329 35.9609C43.6085 36.9535 45.1823 35.3996 44.1797 34.4141Z" fill="#00730C"/>
</svg>
