<svg width="14" height="27" viewBox="0 0 14 27" fill="none" xmlns="http://www.w3.org/2000/svg">
<path d="M10.9687 12.8374V0.446167C7.87881 1.02353 5.679 2.83588 4.40615 5.29968V7.90623C4.40395 9.94738 4.84403 11.9648 5.69609 13.8196L3.63273 15.8828C3.53117 15.9844 3.45061 16.105 3.39564 16.2377C3.34068 16.3704 3.31239 16.5126 3.3124 16.6562V21.672L0.351479 24.6328C-0.562487 25.5278 0.798549 27.2737 1.89832 26.1797L5.17957 22.8984C5.28113 22.7968 5.36169 22.6763 5.41666 22.5436C5.47162 22.4109 5.49991 22.2686 5.4999 22.125V17.1092L6.80693 15.8021C8.41843 18.2063 10.7215 20.0648 13.4117 21.1323C11.8616 18.6365 10.9687 15.7246 10.9687 12.8374Z" fill="#00730C"/>
</svg>
