<svg width="15" height="27" viewBox="0 0 15 27" fill="none" xmlns="http://www.w3.org/2000/svg">
<path d="M13.8983 24.6329L10.9374 21.6721V16.6563C10.9374 16.5126 10.9091 16.3704 10.8542 16.2377C10.7992 16.105 10.7186 15.9844 10.6171 15.8829L8.55372 13.8196C9.40579 11.9648 9.84586 9.94742 9.84366 7.90627V5.29932C8.57081 2.83592 6.37101 1.02357 3.28116 0.445801V12.837C3.28116 15.7243 2.38825 18.6361 0.838135 21.1319C3.5284 20.0645 5.83145 18.206 7.44288 15.8018L8.74991 17.1088V22.125C8.74991 22.2687 8.77819 22.4109 8.83316 22.5436C8.88812 22.6763 8.96868 22.7969 9.07024 22.8984L12.3515 26.1797C13.3271 27.1721 14.9009 25.6183 13.8983 24.6329Z" fill="#00730C"/>
</svg>
