<svg width="47" height="34" viewBox="0 0 47 34" fill="none" xmlns="http://www.w3.org/2000/svg">
<path d="M30.7483 2.81836C24.8333 5.33837 25.2066 5.09337 23.4099 6.1667C19.1166 8.6517 14.8583 11.2884 12.1866 15.1967C11.0345 16.9958 9.99044 18.8619 9.05994 20.785C8.17474 22.6277 7.10362 24.3751 5.86327 26C5.37327 26 5.79328 25.79 0.939941 28.59L3.83327 33.5834L8.14994 31.0984C8.69571 30.6877 8.83748 29.9283 8.47661 29.3484L8.54661 29.4417C11.7741 26.9912 14.6103 24.0645 16.9583 20.7617C21.3799 14.6717 16.7249 18.0667 32.1249 9.1767L46.125 1.11503C40.9367 0.470745 35.6697 1.05419 30.7483 2.81836Z" fill="white"/>
</svg>
