<svg width="34" height="39" viewBox="0 0 34 39" fill="none" xmlns="http://www.w3.org/2000/svg">
<path d="M5.37004 11.7918C3.93811 13.7196 2.34997 15.5262 0.621704 17.1935C3.23504 20.2268 9.5117 24.0651 12.825 25.6518C12.2461 28.5982 11.4067 31.4873 10.3167 34.2851C9.84242 35.256 9.94375 36.4096 10.58 37.2829C11.2163 38.1562 12.2833 38.6062 13.3528 38.4523C14.4224 38.2984 15.3192 37.5658 15.6834 36.5485C16.8341 33.7466 17.7397 30.8502 18.39 27.8918C23.1143 29.4937 28.1401 30.0043 33.09 29.3851L19.5567 21.5685C20.518 14.6288 20.518 7.5898 19.5567 0.650146L14.0034 3.85848C14.4896 8.67234 14.4896 13.523 14.0034 18.3368C5.76671 13.6118 7.45837 14.8718 5.37004 11.7918Z" fill="#00730C"/>
</svg>
