<svg width="40" height="22" viewBox="0 0 40 22" fill="none" xmlns="http://www.w3.org/2000/svg">
<path d="M18.805 16.0201C16.4717 9.51007 4.86334 4.99507 0.383343 8.64674C0.255009 11.5867 3.17168 15.2617 7.68668 17.5251C11.8983 19.6251 16.2383 19.8584 18.6533 18.3651C19.9741 18.5344 21.311 18.5344 22.6317 18.3651C23.0167 19.5317 23.39 20.6984 23.705 21.8651L29.0017 19.6251C29.1883 19.6251 29.13 19.6251 29.0017 19.3101C28.43 13.0801 37.8334 8.61174 37.8334 8.57674C38.8819 8.22653 39.6423 7.31361 39.7973 6.21902C39.9522 5.12443 39.4749 4.03634 38.5648 3.40891C37.6546 2.78147 36.4679 2.72255 35.5 3.25674C31.814 5.00621 28.5684 7.56201 26.0033 10.7351C24.7523 7.78657 23.3265 4.91535 21.7333 2.13674C21.2301 1.20555 20.2618 0.620098 19.2034 0.607035C18.145 0.593972 17.1626 1.15535 16.6365 2.07383C16.1104 2.99232 16.1233 4.12374 16.67 5.03007C18.6984 8.57348 20.4347 12.2763 21.8617 16.1017C20.8429 16.1872 19.8178 16.1599 18.805 16.0201Z" fill="#00730C"/>
</svg>
