<svg width="37" height="40" viewBox="0 0 37 40" fill="none" xmlns="http://www.w3.org/2000/svg">
<path d="M24.8445 20.15C24.7457 20.1219 24.6445 20.106 24.5427 20.1005C26.0403 18.5265 26.9626 16.4001 26.9626 14.0611V6.86821C26.9626 6.80245 26.9563 6.73833 26.9474 6.67517C26.9564 6.54528 26.9626 6.41458 26.9626 6.28251V1.73169C26.9626 0.976592 26.3505 0.364502 25.5954 0.364502H16.4253C12.5636 0.364502 9.42211 3.50616 9.42211 7.36765V14.0611C9.42211 16.4001 10.3443 18.5265 11.842 20.1005C11.7403 20.106 11.6391 20.1219 11.5404 20.15C5.07951 20.735 0 26.1807 0 32.7913V38.6325C0 39.3876 0.61209 39.9997 1.36719 39.9997H35.0174C35.7725 39.9997 36.3846 39.3876 36.3846 38.6325V32.7913C36.3846 26.1808 31.3053 20.7352 24.8445 20.15ZM12.1565 9.10138V7.36751C12.1565 5.01376 14.0715 3.09874 16.4253 3.09874H24.2282V6.28237C24.2282 7.88513 22.9243 9.18901 21.3216 9.18901H12.1565V9.10138ZM12.1565 11.9234H21.3216C22.3841 11.9234 23.3788 11.6278 24.2282 11.1148V14.061C24.2282 17.3891 21.5205 20.0968 18.1923 20.0968C14.8642 20.0968 12.1565 17.3891 12.1565 14.061V11.9234ZM21.168 22.8314L18.1923 25.8072L15.2167 22.8314H21.168ZM33.6503 37.2653H2.73438V34.5309H8.4082C9.1633 34.5309 9.77539 33.9188 9.77539 33.1637C9.77539 32.4086 9.1633 31.7966 8.4082 31.7966H2.78428C3.24352 27.1869 6.85932 23.4954 11.4324 22.9141L17.2256 28.7073C17.482 28.9636 17.8298 29.1077 18.1923 29.1077C18.5549 29.1077 18.9027 28.9636 19.1591 28.7073L24.9523 22.9141C29.8501 23.5366 33.6503 27.7271 33.6503 32.7913V37.2653Z" fill="#00730C"/>
</svg>
