<svg width="37" height="26" viewBox="0 0 37 26" fill="none" xmlns="http://www.w3.org/2000/svg">
<path d="M36.5593 19.1309L30.8416 13.4132V6.83594C30.8416 3.0666 27.775 0 24.0056 0H6.83594C3.0666 0 0 3.0666 0 6.83594V18.8672C0 22.6365 3.0666 25.7031 6.83594 25.7031H24.0055C26.832 25.7031 29.2968 24.0069 30.3309 21.4648H35.5924C36.1453 21.4648 36.6439 21.1317 36.8555 20.6209C37.0672 20.1101 36.9502 19.5219 36.5593 19.1309ZM29.3336 18.7305C28.6966 18.7305 28.144 19.1703 28.0011 19.7911C27.5707 21.662 25.9278 22.9688 24.0055 22.9688H6.83594C4.57434 22.9688 2.73438 21.1288 2.73438 18.8672V6.83594C2.73438 4.57434 4.57434 2.73438 6.83594 2.73438H24.0055C26.2671 2.73438 28.107 4.57434 28.107 6.83594V13.9795C28.107 14.3421 28.2512 14.6899 28.5075 14.9462L32.2917 18.7305H29.3336Z" fill="white"/>
</svg>
