<svg width="10" height="12" viewBox="0 0 10 12" fill="none" xmlns="http://www.w3.org/2000/svg">
<path d="M9.63625 5.0599C9.47465 2.71559 7.58492 0.825861 5.2406 0.66426C3.91128 0.572795 2.64417 1.02123 1.67347 1.9274C0.716299 2.82086 0.167236 4.08414 0.167236 5.39309C0.167373 6.14832 0.779463 6.76041 1.53456 6.76041C2.28966 6.76041 2.90175 6.14832 2.90175 5.39322C2.90175 4.83117 3.12816 4.31028 3.53941 3.92637C3.94997 3.54301 4.48796 3.3527 5.05275 3.39235C6.04246 3.46057 6.84021 4.25832 6.90843 5.24803C6.97748 6.24867 6.3215 7.13297 5.34874 7.35063C4.28398 7.58879 3.54036 8.51451 3.54036 9.6017V10.3311C3.54036 11.0862 4.15245 11.6983 4.90755 11.6983C5.66265 11.6983 6.27474 11.0862 6.27474 10.3311V9.93324C8.39306 9.30133 9.79101 7.30428 9.63625 5.0599Z" fill="white"/>
</svg>
