<svg width="37" height="26" viewBox="0 0 37 26" fill="none" xmlns="http://www.w3.org/2000/svg">
<path d="M30.164 0.296875H12.9945C10.1679 0.296875 7.70317 1.99314 6.66903 4.53516H1.40755C0.854657 4.53516 0.356042 4.86834 0.144401 5.37912C-0.0672392 5.8899 0.0497931 6.47807 0.440672 6.86908L6.15839 12.5868V19.1641C6.15839 22.9334 9.22499 26 12.9943 26H30.164C33.9333 26 37 22.9334 37 19.1641V7.13281C37 3.36348 33.9333 0.296875 30.164 0.296875ZM34.2656 19.1641C34.2656 21.4257 32.4256 23.2656 30.164 23.2656H12.9945C10.7329 23.2656 8.8929 21.4257 8.8929 19.1641V12.0205C8.8929 11.6579 8.7488 11.3101 8.49245 11.0538L4.70821 7.26953H7.6664C8.30337 7.26953 8.85598 6.82971 8.99885 6.20887C9.42924 4.33801 11.0722 3.03125 12.9945 3.03125H30.164C32.4256 3.03125 34.2656 4.87121 34.2656 7.13281V19.1641Z" fill="white"/>
</svg>
