<svg width="37" height="40" viewBox="0 0 37 40" fill="none" xmlns="http://www.w3.org/2000/svg">
<path d="M25.4603 19.7857C25.3615 19.7575 25.2601 19.7416 25.1582 19.7362C26.6558 18.1621 27.5779 16.0357 27.5779 13.6968V6.50371C27.5779 6.43795 27.5716 6.37383 27.5628 6.31066C27.5718 6.18078 27.5779 6.05008 27.5779 5.91801V1.36719C27.5779 0.61209 26.9659 0 26.2108 0H17.0406C13.179 0 10.0375 3.14166 10.0375 7.00314V13.6966C10.0375 16.0356 10.9596 18.162 12.4573 19.736C12.3554 19.7415 12.254 19.7574 12.1551 19.7855C5.69446 20.3708 0.615356 25.8165 0.615356 32.4268V38.2679C0.615356 39.023 1.22745 39.635 1.98254 39.635H12.9829C13.738 39.635 14.3501 39.023 14.3501 38.2679C14.3501 37.5128 13.738 36.9007 12.9829 36.9007H3.34973V32.427C3.34973 27.3628 7.14983 23.1722 12.0476 22.5497L17.8408 28.3429C18.1078 28.6099 18.4577 28.7433 18.8076 28.7433C19.1574 28.7433 19.5074 28.6099 19.7743 28.3429L25.5675 22.5497C30.4656 23.1723 34.2657 27.3628 34.2657 32.427V36.9008H24.194C23.4389 36.9008 22.8268 37.5129 22.8268 38.268C22.8268 39.0231 23.4389 39.6352 24.194 39.6352H35.6329C36.388 39.6352 37 39.0231 37 38.268V32.427C37 25.8166 31.9208 20.371 25.4603 19.7857ZM18.8078 25.4427L15.8322 22.467H21.7835L18.8078 25.4427ZM24.8437 13.6966C24.8437 17.0248 22.136 19.7325 18.8078 19.7325C15.4797 19.7325 12.772 17.0249 12.772 13.6968V11.559H21.9371C22.9996 11.559 23.9943 11.2633 24.8437 10.7505V13.6966V13.6966ZM24.8437 5.91801C24.8437 7.52076 23.5398 8.82465 21.9371 8.82465H12.772V8.73701V7.00314C12.772 4.64939 14.687 2.73438 17.0407 2.73438H24.8437V5.91801Z" fill="#00730C"/>
</svg>
