<svg width="25" height="13" viewBox="0 0 25 13" fill="none" xmlns="http://www.w3.org/2000/svg">
<path opacity="0.5" d="M19.6114 10.8284C20.5237 10.6022 21.3599 10.2998 22.2721 9.99752C22.6522 9.84622 23.0323 9.77099 23.4124 9.6197C23.5644 9.54396 23.7164 9.46823 23.8685 9.46857C24.0205 9.39284 24.1725 9.31711 24.3246 9.31744C24.0965 9.31694 23.8685 9.16429 23.7164 9.08788C23.4124 9.01114 23.1843 8.8585 22.8802 8.78175C22.2721 8.5522 21.74 8.24673 21.1318 7.9411C20.1436 7.40642 12.8458 2.14141 11.4014 1.37751C10.2611 0.842489 9.12086 0.383538 7.82855 0.380672C6.38419 0.301399 4.93983 0.60247 3.5715 1.208C2.58326 1.66223 1.59502 2.11646 0.758813 2.87531C0.606775 2.95104 0.606778 3.10318 0.606778 3.25532C0.530759 3.63551 0.530754 4.01585 0.530754 4.47227C0.530754 7.05865 1.67103 9.5715 3.87557 11.0217C6.38418 12.7008 9.729 12.9364 12.6177 12.5625C13.91 12.4132 18.8512 11.0549 19.6114 10.8284Z" fill="#FFFFFF"/>
</svg>
