<svg width="10" height="21" viewBox="0 0 10 21" fill="none" xmlns="http://www.w3.org/2000/svg">
<path opacity="0.5" d="M6.40259 4.25353C6.02249 3.56806 5.6424 2.95866 5.26231 2.27319C5.11027 1.96857 4.88222 1.73985 4.73018 1.43523C4.65416 1.28292 4.57814 1.20668 4.50212 1.05437C4.4261 0.978135 4.35008 0.825831 4.27406 0.749593C4.27406 0.901733 4.27407 1.12994 4.19805 1.28191C4.19805 1.51012 4.12204 1.73817 4.04602 1.96621C3.97 2.49853 3.81796 3.03068 3.66592 3.56283C3.43787 4.47517 0.549159 11.3911 0.245085 12.6837C0.0170293 13.6721 -0.0589984 14.7369 0.0930388 15.7261C0.321094 16.9437 0.853225 18.0099 1.61341 19.0005C2.14554 19.6863 2.75369 20.4484 3.51388 20.9065C3.66591 20.9829 3.74193 20.983 3.89397 20.9834C4.19804 20.9841 4.57814 20.9088 4.88221 20.8334C7.01074 20.3057 8.75917 18.9403 9.51936 16.8881C10.3556 14.5318 9.89944 11.7922 9.06324 9.50827C8.75916 8.59475 6.70666 4.86277 6.40259 4.25353Z" fill="#00730C"/>
</svg>
