<svg width="72" height="50" viewBox="0 0 72 50" fill="none" xmlns="http://www.w3.org/2000/svg">
<path opacity="0.5" d="M2.28195 49.0343C2.28195 49.0343 2.28195 48.9582 2.35797 48.8063C2.43399 48.6543 2.51 48.4263 2.66204 48.1223C2.96611 47.5144 3.34621 46.6024 3.87834 45.4626C5.01862 43.183 6.69102 39.9917 9.0476 36.2695C10.1879 34.4464 11.5562 32.4716 13.0766 30.4971C14.597 28.5227 16.3454 26.5487 18.2459 24.6512C20.1463 22.7537 22.3509 20.9329 24.7074 19.4167L25.1636 19.1134L25.6197 18.8102C25.9237 18.6587 26.2278 18.4312 26.5319 18.2797L26.7599 18.1281L26.988 17.9764L27.4441 17.7492L28.4323 17.295L29.4206 16.8408L29.9527 16.6137C30.1048 16.538 30.2568 16.4623 30.4849 16.3867L31.4731 16.0086L32.0052 15.8576C32.1573 15.7819 32.3853 15.7824 32.5374 15.7066C33.9057 15.3293 35.35 15.0282 36.7944 14.8032C38.2388 14.5782 39.6831 14.3532 41.0514 14.2041C43.9402 13.9062 46.7528 13.7603 49.4895 13.6143C52.2262 13.4682 54.8868 13.398 57.3954 13.2514C59.9041 13.0288 62.2606 12.7297 64.3892 12.0498C65.4534 11.6718 66.4417 11.2937 67.2779 10.687C68.1141 10.1563 68.7982 9.47322 69.3304 8.7137C69.8625 7.95418 70.2426 7.19431 70.4706 6.51019C70.6987 5.74999 70.9268 5.06587 71.0028 4.45748C71.2308 3.16479 71.2308 2.17589 71.2308 1.49126C71.2308 1.11091 71.2308 0.882697 71.2308 0.730557C71.2308 0.578417 71.2308 0.42627 71.2308 0.42627C71.2308 0.42627 71.2308 0.502347 71.2308 0.730557C71.2308 0.882697 71.2308 1.18698 71.2308 1.49126C71.2308 2.17589 71.1548 3.16463 70.9268 4.45731C70.8507 5.0657 70.6227 5.74983 70.3946 6.51002C70.1666 7.19415 69.7105 7.95384 69.1783 8.71336C68.6462 9.39681 67.962 10.0799 67.1258 10.6106C66.2896 11.1412 65.3014 11.5954 64.3131 11.8975C62.2606 12.5015 59.828 12.8004 57.3194 12.947C54.8108 13.0936 52.1502 13.0877 49.4135 13.1577C46.6768 13.2277 43.8641 13.3736 40.9754 13.5954C39.5311 13.7443 38.0867 13.8933 36.6424 14.1183C35.198 14.3433 33.7537 14.5683 32.3093 14.9454C32.1573 15.0212 31.9292 15.0207 31.7772 15.0964L31.245 15.2473L30.1808 15.6253C30.0287 15.7011 29.8007 15.7766 29.6487 15.8524L29.1165 16.0794L28.1283 16.5336L27.14 16.9879L26.6079 17.2149L26.3798 17.3665L26.1518 17.5182C25.8477 17.6696 25.5437 17.8972 25.1636 18.0484L24.7074 18.3517L24.2513 18.655C21.7427 20.1708 19.5382 21.9916 17.5617 23.889C15.5852 25.7864 13.7608 27.7601 12.1644 29.7344C10.568 31.7087 9.19964 33.6835 7.98335 35.5065C5.55075 39.1524 3.80231 42.4196 2.58602 44.699C1.97787 45.8387 1.59778 46.7507 1.29371 47.4346C1.14167 47.7386 1.06565 47.9666 0.98963 48.1947C0.913611 48.3466 0.913611 48.4227 0.913611 48.4227C0.761573 48.8027 0.913611 49.2595 1.29371 49.4885C1.59778 49.6413 2.05389 49.4902 2.28195 49.0343Z" fill="#00730C"/>
</svg>
