<svg width="17" height="15" viewBox="0 0 17 15" fill="none" xmlns="http://www.w3.org/2000/svg">
<path opacity="0.5" d="M12.693 1.27216C13.4532 1.12171 14.1374 0.971083 14.8976 0.896699C15.2016 0.821303 15.5057 0.82198 15.8858 0.746752C16.0378 0.74709 16.1139 0.747253 16.2659 0.67152C16.3419 0.671689 16.494 0.672026 16.646 0.672363C16.494 0.748096 16.4179 0.900068 16.2659 1.05187C16.1139 1.20367 15.9618 1.43154 15.8098 1.58335C15.5057 1.96302 15.2016 2.41878 14.8976 2.87453C14.3654 3.63405 11.1727 10.0929 10.3364 11.156C9.7283 11.9915 9.04413 12.6746 8.20792 13.2052C7.21968 13.8116 6.00339 14.1132 4.86311 14.1867C4.02691 14.2609 3.11468 14.2589 2.27847 14.0288C2.12643 14.0285 2.12644 13.9524 2.05042 13.8001C1.89839 13.5716 1.67032 13.2668 1.51828 12.9622C0.530042 11.1343 0.454023 8.92811 1.51828 7.02871C2.73458 4.90145 4.93912 3.53707 7.21968 2.70535C8.05589 2.25079 12.0089 1.34671 12.693 1.27216Z" fill="#00730C"/>
</svg>
