<svg width="30" height="42" viewBox="0 0 30 42" fill="none" xmlns="http://www.w3.org/2000/svg">
<path opacity="0.5" d="M0.597628 10.4281C0.44559 8.67812 0.293548 6.8521 0.141511 5.10215C0.0654923 4.34128 0.0654866 3.58058 0.0654867 2.74381C0.0654867 2.43953 0.0654867 2.05918 0.0654867 1.7549C0.0654867 1.52669 0.141506 1.14651 0.0654868 0.918128C0.0654868 0.994198 0.0654868 0.994198 0.0654868 0.918128C0.217525 1.29882 0.673641 1.60411 0.901697 1.90889C1.28179 2.36616 1.66189 2.74735 2.118 3.12871C3.03022 4.04357 3.94245 4.88237 4.93069 5.72133C6.67912 7.17054 21.3507 16.7118 23.7833 18.8472C25.6078 20.4487 27.2041 22.354 28.1924 24.5622C29.4087 27.1513 29.7888 30.0428 29.7128 32.9333C29.6367 34.987 29.4087 37.2686 28.7245 39.1688C28.6485 39.473 28.4204 39.5485 28.1164 39.7761C27.4322 40.1549 26.748 40.4577 25.9878 40.7602C21.2747 42.5755 15.9534 42.2594 11.6963 39.2832C6.83115 35.8493 4.09448 29.9858 2.65013 24.4295C1.96596 21.9177 0.749664 12.0259 0.597628 10.4281Z" fill="#00730C"/>
</svg>
