<svg width="18" height="15" viewBox="0 0 18 15" fill="none" xmlns="http://www.w3.org/2000/svg">
<path opacity="0.5" d="M2.41361 4.38251C2.10953 3.6972 1.80546 3.0119 1.57741 2.32676C1.42537 2.02214 1.34935 1.71769 1.19732 1.41307C1.1213 1.26076 1.1213 1.18469 1.04528 1.03238C1.04528 0.956311 0.969253 0.804007 0.893234 0.727769C0.969253 0.880077 1.19731 0.956655 1.34935 0.956992C1.57741 1.10964 1.72945 1.18604 1.9575 1.26262C2.41361 1.49184 2.86972 1.72106 3.40185 1.87438C4.23806 2.18052 11.2318 3.94563 12.4481 4.48082C13.3603 4.86319 14.1965 5.39755 14.9567 6.15993C15.7929 6.99856 16.325 8.06472 16.6291 9.20644C16.8572 10.0437 17.0852 10.9571 17.0852 11.7938C17.0852 11.946 17.0092 12.0219 16.9332 12.0978C16.7051 12.3255 16.4771 12.5532 16.249 12.7809C14.6526 14.1466 12.5241 14.6744 10.4716 14.0613C8.11501 13.3714 6.29056 11.4656 4.99825 9.48493C4.46612 8.64698 2.71768 4.99174 2.41361 4.38251Z" fill="#FFFFFF"/>
</svg>
