<svg width="38" height="20" viewBox="0 0 38 20" fill="none" xmlns="http://www.w3.org/2000/svg">
<path opacity="0.5" d="M32.3231 8.69114C33.3874 7.78066 34.5276 6.79428 35.5919 5.88379C36.048 5.42839 36.5041 5.04905 36.9602 4.59364C37.1123 4.44183 37.3403 4.21413 37.4924 4.06233C37.6444 3.91052 37.7964 3.60658 37.9485 3.53085C37.6444 3.68231 37.2643 3.6054 36.9602 3.60473C36.5041 3.60371 36.048 3.6027 35.5919 3.60169C34.6037 3.5995 33.5394 3.59714 32.5512 3.44281C30.7267 3.28662 16.9673 0.441523 14.4587 0.28382C12.4822 0.203368 10.5058 0.351124 8.68131 1.10778C6.55279 1.93983 4.65233 3.30488 3.13196 5.05112C2.0677 6.26588 0.851401 7.70851 0.243252 9.1525C0.167233 9.38054 0.167226 9.53268 0.319263 9.8373C0.4713 10.4462 0.699363 11.0553 1.00344 11.5884C2.67585 15.3196 5.86863 18.1412 9.97363 18.835C14.6868 19.6061 19.552 17.8673 23.5049 15.4418C25.0253 14.5324 31.3349 9.52572 32.3231 8.69114Z" fill="#FFFFFF"/>
</svg>
