<svg width="38" height="159" viewBox="0 0 38 159" fill="none" xmlns="http://www.w3.org/2000/svg">
<path opacity="0.5" d="M2.67388 158.554C3.28203 157.947 3.89018 157.188 4.57434 156.428C7.91916 152.632 12.5563 147.166 17.4975 140.026C20.0061 136.456 22.5147 132.582 24.9473 128.252C27.3799 123.921 29.7365 119.286 31.789 114.27C33.8415 109.254 35.5139 103.857 36.5782 98.3058L36.8063 97.2413L36.9583 96.1767C37.0343 95.4922 37.1863 94.7319 37.2624 94.0474L37.3384 93.5151L37.4144 92.9828L37.4904 91.918L37.6425 89.7883L37.6425 87.5823L37.6425 86.5173C37.6425 86.137 37.6425 85.7566 37.6425 85.4523L37.4904 83.246L37.4144 82.1808C37.4144 81.8005 37.3384 81.496 37.2624 81.1155C36.9583 78.2242 36.3501 75.4082 35.742 72.5923C35.1338 69.7763 34.3736 67.0361 33.6135 64.2959C32.0931 58.8916 30.2687 53.6387 28.4442 48.5379C26.6198 43.5133 24.7953 38.6407 23.2749 33.9971C21.7546 29.3535 20.5383 24.8626 20.2342 20.602C20.0822 18.4717 20.1582 16.418 20.5383 14.5171C20.9184 12.6162 21.6025 10.8681 22.5148 9.42478C23.427 7.98147 24.4912 6.76671 25.6315 5.70426C26.7718 4.71788 27.9121 3.88363 28.9003 3.27726C31.0288 1.98879 32.8533 1.15607 34.0696 0.702343C34.6777 0.399411 35.1338 0.248282 35.5139 0.173055C35.818 0.0215892 35.97 0.0219264 35.97 0.0219264C35.97 0.0219264 35.818 0.0976593 35.4379 0.172887C35.1338 0.324352 34.6017 0.475313 33.9936 0.702174C32.7773 1.1559 30.9528 1.91255 28.7483 3.20086C27.684 3.80706 26.5437 4.6413 25.4035 5.62768C24.2632 6.61406 23.1229 7.82866 22.2107 9.34804C21.2224 10.7912 20.5383 12.6153 20.0822 14.5161C19.626 16.4168 19.55 18.5466 19.7021 20.6769C19.9301 25.0134 21.1464 29.5803 22.5148 34.2997C23.9591 39.0192 25.7075 43.8916 27.456 48.9922C29.2044 54.0927 30.8768 59.3453 32.3211 64.7495C33.0813 67.4897 33.6895 70.2295 34.2976 72.9694C34.8298 75.7091 35.3619 78.5249 35.666 81.3402C35.742 81.7207 35.742 82.025 35.818 82.4055L35.894 83.4706L35.97 85.6008C35.97 85.9811 35.97 86.2854 35.97 86.6657L35.97 87.7307L35.894 89.8605L35.666 91.99L35.59 93.0548L35.5139 93.5871L35.4379 94.1194C35.3619 94.8039 35.2099 95.4882 35.1338 96.1726L34.9818 97.2373L34.7537 98.2257C33.6135 103.7 31.865 108.869 29.8125 113.733C27.76 118.597 25.3274 123.156 22.8948 127.334C20.3862 131.513 17.8776 135.31 15.369 138.804C10.3518 145.715 5.71463 151.03 2.36981 154.674C1.83768 155.281 1.30555 155.813 0.849436 156.268L0.849436 158.778L2.67388 158.782L2.67388 158.554Z" fill="#FFFFFF"/>
</svg>
