<svg width="21" height="37" viewBox="0 0 21 37" fill="none" xmlns="http://www.w3.org/2000/svg">
<path opacity="0.5" d="M18.7348 7.84723C18.5067 6.40139 18.2026 5.03146 17.8986 3.58545C17.7465 2.97655 17.5945 2.36766 17.4424 1.75876C17.3664 1.53038 17.2904 1.22593 17.2144 0.997552C17.1384 0.769173 16.9863 0.540626 17.0624 0.312584C17.0624 0.616864 16.7583 0.99654 16.6062 1.22441C16.3782 1.60426 16.1501 2.06017 15.9221 2.44002C15.3899 3.35168 14.8578 4.18727 14.3257 5.02286C13.3374 6.54207 3.91113 16.9428 2.54279 19.1458C1.47853 20.8169 0.64233 22.5647 0.338256 24.5419C-0.041838 26.8231 0.26224 29.1059 0.946406 31.3134C1.47854 32.9121 2.08668 34.587 3.07492 35.9584C3.22696 36.187 3.379 36.1873 3.68307 36.2641C4.29122 36.4175 4.89938 36.495 5.50752 36.5724C9.53651 36.9617 13.6415 35.6015 16.2261 32.4123C19.2669 28.7677 20.1791 23.673 20.1031 18.9565C20.1791 17.0549 18.9628 9.14093 18.7348 7.84723Z" fill="#00730C"/>
</svg>
