<svg width="35" height="24" viewBox="0 0 35 24" fill="none" xmlns="http://www.w3.org/2000/svg">
<path opacity="0.5" d="M26.5296 22.9458C27.974 23.0251 29.4183 23.0283 30.8627 23.1076C31.4708 23.1089 32.079 23.1103 32.7632 23.1118C32.9912 23.1123 33.2953 23.113 33.5233 23.1135C33.7514 23.114 34.0555 23.0386 34.2075 23.115C33.9034 23.0383 33.5994 22.6572 33.3713 22.5046C32.9912 22.1995 32.6871 21.8945 32.3831 21.5896C31.6229 20.9032 30.9387 20.2171 30.2545 19.4549C29.0382 18.159 20.8282 6.6542 19.0038 4.82448C17.6355 3.45218 16.0391 2.23152 14.2146 1.54284C12.0861 0.701354 9.72952 0.467918 7.44897 0.615001C5.85257 0.763602 4.02813 0.987767 2.50775 1.66903C2.2797 1.74459 2.20367 1.89656 2.05164 2.2005C1.74756 2.73232 1.51951 3.34038 1.36748 3.9486C0.0751584 7.82531 0.531261 12.0862 3.11589 15.363C6.08062 19.1731 10.7938 21.1613 15.3549 22.0843C17.1793 22.3165 25.2373 22.8669 26.5296 22.9458Z" fill="#00730C"/>
</svg>
