<svg width="40" height="34" viewBox="0 0 40 34" fill="none" xmlns="http://www.w3.org/2000/svg">
<path opacity="0.5" d="M1.02844 31.0526C1.02844 31.0526 0.724369 31.0519 0.648351 30.5193C0.724369 30.063 0.572337 29.4541 0.724374 28.6938C0.876411 27.9334 1.02845 27.0209 1.2565 25.9564C1.48456 24.892 1.78863 23.6755 2.24475 22.4594C2.4728 21.8513 2.70085 21.1672 2.92891 20.4831C3.23298 19.7991 3.46104 19.115 3.76512 18.4311C4.37327 17.0631 5.13345 15.6195 6.04568 14.1762C6.9579 12.7329 7.94614 11.3658 9.16243 10.0753C10.3787 8.78483 11.595 7.5704 13.0394 6.50862C14.4077 5.44668 15.9281 4.53721 17.4485 3.70381C18.2087 3.32514 18.9688 2.94648 19.729 2.64388C20.4892 2.34129 21.2494 2.03869 22.0096 1.81217C22.7698 1.58564 23.53 1.35912 24.2901 1.1326C25.0503 0.982141 25.8105 0.831685 26.4947 0.681062C27.1788 0.530439 27.939 0.456056 28.6232 0.381503C28.9273 0.306107 29.3074 0.306949 29.6114 0.231554C29.9155 0.232228 30.2956 0.157002 30.5997 0.157676C31.2078 0.0829544 31.816 0.0843024 32.4241 0.00958078C33.0323 0.0109293 33.5644 0.0121092 34.0965 0.0132891C34.6287 0.014469 35.0848 0.0154804 35.5409 0.0164917C35.997 0.0175031 36.3771 0.0944148 36.7572 0.0952576C38.2015 0.17453 39.1138 0.252624 39.1138 0.252624C39.1138 0.252624 38.2776 0.250771 36.7572 0.171329C36.3771 0.170487 35.997 0.169644 35.5409 0.168632C35.0848 0.167621 34.6287 0.242679 34.0965 0.241499C33.5644 0.240319 33.0323 0.239138 32.4241 0.313859C31.816 0.388581 31.2078 0.463305 30.5997 0.538026C30.2956 0.537352 29.9915 0.612747 29.6114 0.611904C29.3074 0.6873 28.9273 0.762528 28.6232 0.761853C27.939 0.912477 27.2549 0.98703 26.5707 1.13765C25.8865 1.28828 25.1263 1.5148 24.4422 1.66542C23.682 1.89195 22.9978 2.11864 22.2376 2.42124C21.4774 2.72383 20.7933 3.02659 20.0331 3.32919C19.2729 3.70785 18.5887 4.08668 17.8286 4.46535C16.3842 5.29892 14.9398 6.20856 13.7236 7.34691C12.4312 8.40903 11.2149 9.62345 10.1507 10.9143C9.08642 12.2051 8.1742 13.5724 7.33799 14.9398C6.57781 16.3073 5.81762 17.6749 5.28549 19.043C4.98142 19.7269 4.75336 20.4111 4.52531 21.0191C4.29725 21.7033 4.06919 22.3113 3.91715 22.9195C3.53706 24.1358 3.309 25.2764 3.08094 26.2648C2.92891 27.2533 2.77687 28.1658 2.70085 28.9264C2.62483 29.6869 2.54882 30.2192 2.54882 30.5996C2.54882 30.9799 2.32076 33.0333 2.32076 33.0333C2.32076 33.6419 1.71262 32.6516 1.48456 32.1947C1.10447 31.7374 0.952425 31.661 1.02844 31.0526Z" fill="#FFFFFF"/>
</svg>
