<svg width="11" height="21" viewBox="0 0 11 21" fill="none" xmlns="http://www.w3.org/2000/svg">
<path opacity="0.5" d="M2.34898 4.60876C2.57703 3.92464 2.80509 3.24051 3.10916 2.55655C3.18518 2.25244 3.33722 1.9485 3.48926 1.64456C3.56527 1.49259 3.56527 1.41652 3.64129 1.26455C3.71731 1.18864 3.79333 1.03667 3.79333 0.960601C3.79333 1.11274 3.86934 1.34112 3.94536 1.49343C4.02138 1.72181 4.0974 1.95019 4.17342 2.17856C4.40147 2.63549 4.55351 3.16832 4.78157 3.62525C5.16166 4.46286 9.11463 10.4812 9.64676 11.6995C10.0269 12.6131 10.3309 13.6027 10.3309 14.5916C10.3309 15.8088 10.0269 16.9491 9.49472 18.0129C9.11463 18.7728 8.65852 19.6086 8.05037 20.2158C7.97435 20.2917 7.89833 20.2915 7.74629 20.2912C7.44222 20.2905 7.13814 20.2898 6.75805 20.289C4.70554 20.2084 2.72906 19.139 1.6648 17.311C0.448504 15.1783 0.372488 12.5917 0.75258 10.2344C0.904618 9.16977 2.12092 5.21682 2.34898 4.60876Z" fill="#00730C"/>
</svg>
