<svg width="68" height="68" viewBox="0 0 68 68" fill="none" xmlns="http://www.w3.org/2000/svg">
<path d="M64.625 52.5938H59.0009C58.512 50.7114 56.8145 49.3125 54.7812 49.3125V41.6278C55.6978 42.3223 56.8266 42.75 58.0625 42.75C61.078 42.75 63.5312 40.2967 63.5312 37.2812C63.5312 36.9389 63.4962 36.5944 63.4262 36.2498C64.8602 35.2337 65.7188 33.6041 65.7188 31.8125C65.7188 30.2692 65.08 28.8408 63.9666 27.8181C64.3953 27.0262 64.625 26.1436 64.625 25.25C64.625 23.8927 64.1153 22.6009 63.2053 21.6012C63.4219 21.0095 63.5312 20.4003 63.5312 19.7812C63.5312 16.9813 61.417 14.6669 58.7012 14.3497C57.8536 12.3602 55.8958 11.0312 53.6875 11.0312C51.4792 11.0312 49.5214 12.3602 48.6738 14.3497C45.958 14.6669 43.8438 16.9813 43.8438 19.7812C43.8438 20.4003 43.9531 21.0095 44.1697 21.6012C43.5966 22.2302 43.205 22.9816 42.9764 23.7855C41.6377 22.6414 40.0638 21.9688 38.375 21.9688C36.2925 21.9688 34.3806 22.9772 32.8767 24.6539C32.7367 23.1883 32.0848 21.7883 31.0392 20.7427L27.8903 17.5938H32.9062V15.3909C32.9062 14.365 32.3955 13.3861 31.5402 12.7736C27.5841 9.93859 24.3925 6.11594 22.3133 1.71687C21.8397 0.715 20.8684 0.09375 19.7812 0.09375C18.6941 0.09375 17.7228 0.715 17.2492 1.71687C15.1711 6.11594 11.9795 9.93969 8.02125 12.7736C7.16703 13.3861 6.65625 14.365 6.65625 15.3909V17.5938H11.6722L8.52328 20.7427C7.33656 21.9294 6.65625 23.5722 6.65625 25.25V26.3438H11.6722L8.52328 29.4927C7.33656 30.6794 6.65625 32.3222 6.65625 34V35.0938H18.6875V39.4688C15.8875 39.4688 13.5731 41.583 13.2559 44.2988C11.2664 45.1464 9.9375 47.1042 9.9375 49.3125C9.9375 50.5211 10.3411 51.6827 11.028 52.5938C9.22 52.5959 7.75 54.067 7.75 55.875C7.75 56.4787 7.26 56.9688 6.65625 56.9688H3.375C1.56594 56.9688 0.09375 58.4409 0.09375 60.25C0.09375 62.0591 1.56594 63.5312 3.375 63.5312H9.045C8.9225 63.8747 8.84375 64.24 8.84375 64.625C8.84375 66.4341 10.3159 67.9062 12.125 67.9062H54.7812C56.5903 67.9062 58.0625 66.4341 58.0625 64.625C58.0625 62.8159 56.5903 61.3438 54.7812 61.3438H52.5938H51.5C50.8963 61.3438 50.4062 60.8537 50.4062 60.25C50.4062 59.6463 50.8963 59.1562 51.5 59.1562H64.625C66.4341 59.1562 67.9062 57.6841 67.9062 55.875C67.9062 54.0659 66.4341 52.5938 64.625 52.5938V52.5938ZM56.6516 52.5938H41.9789C42.237 52.1606 42.6275 51.8084 43.1295 51.6334L43.8886 51.3688L43.8623 50.5648C43.8602 50.4948 43.8525 50.427 43.8438 50.4062C43.8438 48.5972 45.3159 47.125 47.125 47.125C48.2931 47.125 49.3825 47.7703 49.9687 48.8083L50.228 49.2687L50.7508 49.3508C51.593 49.4842 52.282 50.1044 52.5062 50.9323L52.8278 52.1202L53.9697 51.6608C55.0219 51.2408 56.1255 51.7286 56.6516 52.5938V52.5938ZM39.4688 45.9273C41.9078 45.5062 44.033 43.7016 45.4231 41.1006C46.4348 42.1244 47.8272 42.75 49.3125 42.75C50.5484 42.75 51.6772 42.3223 52.5938 41.6278V47.7441C52.2831 47.5625 51.9572 47.405 51.605 47.3044C50.5878 45.8322 48.9144 44.9375 47.125 44.9375C44.2802 44.9375 41.9362 47.1206 41.6792 49.8987C40.6511 50.485 39.9084 51.4617 39.612 52.5938H39.4688V45.9273ZM46.1723 22.7114L46.8822 22.1383L46.4458 21.3377C46.1713 20.8313 46.0312 20.3073 46.0312 19.7812C46.0312 17.9722 47.5034 16.5 49.2414 16.4967L50.3034 16.5514L50.5222 15.6917C50.893 14.2359 52.1956 13.2188 53.6875 13.2188C55.1794 13.2188 56.482 14.2359 56.8539 15.6917L57.0727 16.5514L57.9608 16.5142C58.0188 16.512 58.0767 16.5055 58.0625 16.5C59.8716 16.5 61.3438 17.9722 61.3438 19.7812C61.3438 20.3073 61.2037 20.8313 60.9292 21.3366L60.4928 22.1372L61.2027 22.7103C61.988 23.3447 62.4375 24.27 62.4375 25.25C62.4375 26.2213 62.0055 26.9322 61.6434 27.3587L60.8067 28.3442L61.918 29.0048C62.9275 29.6086 63.5312 30.6575 63.5312 31.8125C63.5312 33.0714 62.8181 34.2002 61.6675 34.7547L60.7673 35.19L61.1206 36.1252C61.2694 36.5189 61.3438 36.9072 61.3438 37.2812C61.3438 39.0903 59.8716 40.5625 58.0625 40.5625C56.2534 40.5625 54.7812 39.0903 54.7812 37.2812V34.385L58.9167 29.2148L57.2072 27.8477L54.7812 30.8806V19.7812H52.5938V26.5056L50.1667 23.4727L48.4572 24.8398L52.5938 30.01V37.2812C52.5938 39.0903 51.1216 40.5625 49.3125 40.5625C48.0842 40.5625 46.9588 39.8548 46.4009 38.7786C46.8647 37.3119 47.125 35.6975 47.125 34C47.125 30.9605 46.2948 28.1889 44.9375 26.0692V25.25C44.9375 24.27 45.387 23.3447 46.1723 22.7114V22.7114ZM38.375 24.1562C41.9942 24.1562 44.9375 28.5717 44.9375 34C44.9375 38.8683 42.5673 42.9108 39.4688 43.6961V35.4788L43.6042 30.3086L41.8947 28.9414L39.4688 31.9744V28.5312H37.2812V36.9498L34.91 33.393L33.09 34.6059L37.2812 40.8939V43.6961C34.1827 42.9119 31.8125 38.8683 31.8125 34C31.8125 28.5717 34.7558 24.1562 38.375 24.1562V24.1562ZM31.6309 26.3438C31.1628 27.1214 30.7734 27.9877 30.4584 28.9108L27.8903 26.3438H31.6309ZM10.0698 31.0392L14.7653 26.3438H16.5V24.1562H8.99141C9.18281 23.4552 9.55359 22.8066 10.0698 22.2892L14.7653 17.5938H16.5V15.4062H8.84375V15.3909C8.84375 15.0639 9.00781 14.7577 9.29547 14.5509C13.5556 11.5016 16.9889 7.38578 19.2267 2.65203C19.4422 2.19266 20.1192 2.19266 20.3358 2.65203C22.5736 7.38578 26.008 11.5016 30.2659 14.5509C30.5547 14.7577 30.7188 15.065 30.7188 15.3909L23.0625 15.4062V17.5938H24.7972L29.4927 22.2892C30.01 22.8066 30.3808 23.4552 30.5711 24.1562H23.0625V26.3438H24.7972L29.4927 31.0392C29.6152 31.1617 29.7267 31.2908 29.8317 31.4253C29.7552 31.9087 29.6983 32.402 29.6655 32.9062H8.99141C9.18281 32.2052 9.5525 31.5566 10.0698 31.0392V31.0392ZM20.875 35.0938H29.6655C30.0363 40.7178 33.2322 45.2284 37.2812 45.9273V52.5938H32.8887C33.5964 51.6531 34 50.508 34 49.3125C34 46.297 31.5467 43.8438 28.5312 43.8438C28.1889 43.8438 27.8433 43.8788 27.4998 43.9488C26.4837 42.5148 24.8552 41.6562 23.0625 41.6562C23.0548 41.6562 23.0461 41.6562 23.0395 41.6562C22.4719 40.9005 21.7205 40.3186 20.875 39.9434V35.0938ZM14.598 46.1461L15.4577 45.9273L15.4205 45.0392C15.4183 44.9867 15.4128 44.9342 15.4073 44.9342C15.4073 44.9342 15.4062 44.9353 15.4062 44.9364C15.4062 43.1273 16.8784 41.6552 18.6875 41.6552C19.8589 41.6552 20.9483 42.3016 21.5334 43.3417L21.9939 43.9805L22.7344 43.8766C22.8416 43.8634 22.9498 43.8438 23.0625 43.8438C24.3225 43.8438 25.4502 44.5569 26.0047 45.7064L26.44 46.6098L27.3773 46.2533C29.6283 45.4002 31.8136 47.1261 31.8125 49.3125C31.8125 50.2531 31.4078 51.1511 30.7002 51.7734L30.0669 52.5938H14.003L13.2362 51.7734C12.5297 51.1511 12.125 50.2531 12.125 49.3125C12.125 47.8206 13.1422 46.518 14.598 46.1461V46.1461ZM64.625 56.9688H51.5C49.6909 56.9688 48.2188 58.4409 48.2188 60.25C48.2188 60.635 48.2975 61.0003 48.42 61.3438H46.0312V63.5312H51.5H52.5938H54.7812C55.385 63.5312 55.875 64.0213 55.875 64.625C55.875 65.2287 55.385 65.7188 54.7812 65.7188H12.125C11.5213 65.7188 11.0312 65.2287 11.0312 64.625C11.0312 64.0213 11.5213 63.5312 12.125 63.5312H15.4062H18.6875V61.3438H15.4062H12.125H3.375C2.77125 61.3438 2.28125 60.8537 2.28125 60.25C2.28125 59.6463 2.77125 59.1562 3.375 59.1562H6.65625C8.46531 59.1562 9.9375 57.6841 9.9375 55.875C9.9375 55.2713 10.4275 54.7812 11.0312 54.7812H64.625C65.2287 54.7812 65.7188 55.2713 65.7188 55.875C65.7188 56.4787 65.2287 56.9688 64.625 56.9688Z" fill="#FFFFFF"/>
</svg>
