<svg width="11" height="9" viewBox="0 0 11 9" fill="none" xmlns="http://www.w3.org/2000/svg">
<path d="M9.31256 1.59385C6.9814 0.278467 3.98801 0.354304 2.19518 1.77383C1.02185 2.70308 0.579655 4.05745 0.977528 5.49567C0.985538 5.53198 0.995685 5.56776 1.00797 5.60355C1.44109 7.02734 2.55086 7.99398 3.98374 8.19212C4.16799 8.21775 4.35384 8.23004 4.54022 8.23004C6.48846 8.23004 8.53604 6.86018 9.99829 4.5365C10.0079 4.52048 10.0175 4.50499 10.0266 4.48844C10.6578 3.3541 10.4068 2.28118 9.35528 1.61948C9.3414 1.6104 9.32698 1.60186 9.31256 1.59385V1.59385ZM8.24658 3.46999C6.85322 5.66977 5.23183 6.29568 4.26518 6.1611C3.61897 6.07191 3.17143 5.67244 2.96903 5.00594C2.96636 4.99579 2.96369 4.98618 2.96102 4.97603C2.77143 4.32288 2.93752 3.80164 3.46784 3.38134C4.45317 2.60108 6.51837 2.38425 8.28076 3.36585C8.28503 3.36852 8.2893 3.37119 8.29304 3.37439C8.28236 3.40003 8.26741 3.43154 8.24658 3.46999Z" fill="#FFFFFF"/>
</svg>
