<svg width="70" height="66" viewBox="0 0 70 66" fill="none" xmlns="http://www.w3.org/2000/svg">
<path d="M68.9751 63.7857H68.0421C67.5738 58.7351 63.681 54.625 58.6588 53.8954C58.4969 51.6551 57.7375 49.5237 56.4381 47.6828C56.1113 47.2203 55.472 47.1097 55.0095 47.436C54.547 47.7629 54.4365 48.4021 54.7628 48.8646C55.9917 50.6057 56.6411 52.6591 56.6411 54.8039V54.8236C56.6411 55.3657 57.0635 55.8143 57.6051 55.8469C61.9891 56.1091 65.4931 59.5116 65.9812 63.7857H4.01505C4.50317 59.5116 8.00713 56.1091 12.3912 55.8469C12.9327 55.8143 13.3552 55.3657 13.3552 54.8236V54.8039C13.3552 49.1183 17.9807 44.4928 23.6662 44.4928C23.7869 44.4928 23.9071 44.4955 24.0278 44.4998C24.0321 44.4998 24.0363 44.5008 24.0411 44.5008C24.0422 44.5008 24.0433 44.5003 24.0443 44.5003C24.3584 44.5121 24.6697 44.5372 24.9747 44.5772C25.348 44.6263 25.7186 44.4661 25.9397 44.1601C28.1763 41.0556 31.7914 39.2025 35.6104 39.2025C39.3889 39.2025 42.9831 41.0252 45.2245 44.0784C45.4179 44.3412 45.7249 44.4971 46.0513 44.4971C46.1041 44.4971 46.157 44.4955 46.2109 44.4944C46.2515 44.4939 46.2921 44.4928 46.3338 44.4928C48.1554 44.4928 49.9499 44.9767 51.5232 45.8921C52.0124 46.1767 52.6399 46.0112 52.9246 45.522C53.2098 45.0328 53.0437 44.4052 52.5545 44.1201C50.7323 43.06 48.6633 42.4826 46.5565 42.4447C44.6777 40.0804 42.0843 38.403 39.2132 37.6307C39.179 34.4595 38.8762 31.3689 38.3282 28.6468C38.2166 28.0919 37.6762 27.732 37.1213 27.8436C36.5659 27.9557 36.2064 28.4962 36.3186 29.0511C36.8174 31.5323 37.1042 34.3415 37.1576 37.2398C36.646 37.1821 36.1295 37.1522 35.6104 37.1522C31.3348 37.1522 27.2775 39.1336 24.6382 42.481C24.557 42.4746 24.4753 42.4714 24.3936 42.4666C17.1048 37.2638 12.968 31.8394 13.0369 27.5563C13.0721 25.373 14.2022 23.4114 16.3972 21.7126L17.1465 23.0894C17.4306 23.6192 17.9053 24.0048 18.4837 24.1757C18.6952 24.2382 18.9115 24.2691 19.1262 24.2691C19.4931 24.2691 19.8568 24.1789 20.189 24.001C20.1911 24 20.1927 23.9989 20.1949 23.9978L23.0836 22.4272C24.1709 21.8338 24.5731 20.4672 23.9813 19.383L23.2748 18.0842C25.7763 17.2821 27.9633 17.2826 29.7892 18.088C32.0301 19.0765 33.8133 21.2907 35.0892 24.6691C35.2441 25.0793 35.6339 25.3319 36.0484 25.3319C36.1685 25.3319 36.2908 25.3111 36.4104 25.2657C36.9397 25.066 37.2073 24.4742 37.007 23.9444C35.5293 20.0325 33.3791 17.4311 30.6165 16.2123C28.2233 15.1565 25.4222 15.1747 22.2809 16.2572L21.483 14.7901C21.9049 13.3439 21.7436 11.8251 21.028 10.5123L17.0204 3.13701C16.3032 1.81629 15.109 0.852312 13.6591 0.423464C12.2086 -0.00591868 10.6822 0.153764 9.36043 0.872606C8.03864 1.58985 7.07413 2.78453 6.64474 4.2361C6.2159 5.68714 6.37505 7.21347 7.09229 8.5342L11.0999 15.9058C11.8192 17.2281 13.0145 18.1926 14.4644 18.622C14.5611 18.6509 14.6588 18.6738 14.7565 18.6973L15.406 19.8915C12.5204 22.0261 11.0342 24.5896 10.9872 27.5231C10.8926 33.4031 16.6434 39.0823 21.2518 42.6802C15.877 43.7489 11.7455 48.3135 11.338 53.8954C6.31523 54.625 2.42249 58.7351 1.95412 63.7857H1.02486C0.458756 63.7857 0 64.2449 0 64.8111C0 65.3772 0.458756 65.8359 1.02486 65.8359H68.9751C69.5412 65.8359 70 65.3772 70 64.8111C70 64.2449 69.5412 63.7857 68.9751 63.7857ZM20.3145 16.9328L22.181 20.3641C22.2312 20.4565 22.1949 20.5772 22.1025 20.6274L19.2191 22.1949C19.155 22.2285 19.0958 22.2189 19.0653 22.2098C19.0306 22.1997 18.9836 22.1762 18.951 22.1153L17.1251 18.7603C17.6923 18.6525 18.2445 18.4565 18.7646 18.1734C19.3596 17.8498 19.8808 17.4289 20.3145 16.9328ZM15.0465 16.6561C14.121 16.3822 13.3589 15.7675 12.9012 14.9263L8.8942 7.55527C8.43811 6.7152 8.33717 5.74321 8.61115 4.81769C8.88458 3.89163 9.49821 3.1306 10.3383 2.67452C10.3388 2.67452 10.3394 2.67452 10.3399 2.67398C10.8702 2.38559 11.4534 2.23873 12.0446 2.23873C12.3891 2.23873 12.7367 2.28839 13.078 2.38933C14.003 2.6633 14.7635 3.2764 15.2196 4.11594L19.2277 11.4923C19.6843 12.3303 19.7858 13.3012 19.5123 14.2267C19.4846 14.3202 19.453 14.411 19.4183 14.5012C19.4167 14.506 19.4135 14.5108 19.4114 14.5162C19.4018 14.5413 19.3922 14.568 19.382 14.5941C19.068 15.3541 18.5115 15.9774 17.7852 16.372C17.1155 16.7363 16.3625 16.8735 15.6158 16.7763C15.6009 16.7742 15.5859 16.7715 15.5715 16.7694C15.5656 16.7683 15.5592 16.7688 15.5528 16.7678C15.3835 16.7427 15.2142 16.7058 15.0465 16.6561Z" fill="#FFFFFF"/>
</svg>
