<svg width="9" height="9" viewBox="0 0 9 9" fill="none" xmlns="http://www.w3.org/2000/svg">
<path d="M0.936333 7.17602C1.67226 8.08819 2.68858 8.58166 3.76951 8.58166C4.07713 8.58166 4.38955 8.5416 4.70251 8.45989C6.76237 7.9237 8.35707 5.74795 8.86389 2.78287C8.86656 2.76631 8.86923 2.74976 8.87136 2.73267C9.02624 1.44613 8.38697 0.550513 7.16131 0.336891C7.14422 0.33422 7.12713 0.33155 7.11004 0.329414C4.45204 0.00310542 1.71446 1.21648 0.598274 3.21385C-0.133919 4.52496 -0.0233691 5.94983 0.901085 7.12956C0.9123 7.14558 0.924049 7.16107 0.936333 7.17602V7.17602ZM2.3879 4.21361C3.00153 3.11559 4.82961 2.12651 6.83126 2.36097C6.83607 2.3615 6.84034 2.36257 6.84462 2.36364C6.84408 2.39034 6.84248 2.42398 6.83821 2.46511C6.39173 5.03125 5.13189 6.22967 4.18554 6.47587C3.56069 6.63876 2.9994 6.44703 2.55933 5.92206C2.54492 5.90283 2.5305 5.88414 2.51501 5.86598C2.10272 5.33993 2.06106 4.79947 2.3879 4.21361V4.21361Z" fill="#FFFFFF"/>
</svg>
