<svg width="10" height="10" viewBox="0 0 10 10" fill="none" xmlns="http://www.w3.org/2000/svg">
<path d="M9.45699 3.26003C9.6108 1.97669 8.97207 1.08001 7.74748 0.861579C7.72879 0.857841 7.7101 0.855171 7.69087 0.853034C5.03394 0.529395 2.29636 1.74331 1.18285 3.73908C0.454401 5.04379 0.561746 6.46224 1.47552 7.63877C1.49474 7.66601 1.51504 7.69218 1.53693 7.71781C2.27126 8.6193 3.28063 9.10583 4.35462 9.10583C4.66117 9.10583 4.97252 9.06631 5.28441 8.98567C7.34427 8.45054 8.94056 6.27693 9.44952 3.3113C9.45272 3.29421 9.45539 3.27712 9.45699 3.26003V3.26003ZM7.42437 2.99247C6.97577 5.55862 5.71539 6.75544 4.76904 7.00111C4.14099 7.164 3.57863 6.96907 3.13857 6.43821C3.13056 6.427 3.12201 6.41578 3.11347 6.4051C2.68943 5.87425 2.6435 5.32897 2.97301 4.73831C3.58504 3.64242 5.40938 2.65388 7.41156 2.88459C7.4185 2.88566 7.42491 2.88726 7.43078 2.88833C7.43025 2.9161 7.42865 2.95028 7.42437 2.99247Z" fill="#FFFFFF"/>
</svg>
