<svg width="66" height="54" viewBox="0 0 66 54" fill="none" xmlns="http://www.w3.org/2000/svg">
<path d="M56.5334 24.1044L64.6996 8.51438C65.3447 7.28178 65.4738 5.84343 65.0585 4.51564C64.6433 3.18786 63.7177 2.07934 62.4853 1.43387C61.2529 0.788393 59.8146 0.658807 58.4867 1.07361C57.1588 1.4884 56.05 2.41363 55.4041 3.64581L47.2379 19.2358C46.8468 19.9778 46.6405 20.8032 46.6364 21.642C46.6324 22.4807 46.8307 23.3081 47.2146 24.0538L44.6853 28.8841L41.1457 27.1149C40.8954 26.9902 40.6069 26.9658 40.3392 27.0469C40.0716 27.128 39.845 27.3084 39.7061 27.5511L32.9877 39.3075C31.9771 41.0792 31.4333 43.0786 31.4072 45.1181C30.5363 44.7109 29.5865 44.4999 28.625 44.5001C28.5785 44.5001 28.5334 44.5028 28.4869 44.5042C28.244 43.5648 27.6962 42.7326 26.9294 42.1381C26.1627 41.5435 25.2203 41.2202 24.25 41.2189V32.4689H25.3437C28.5335 32.4651 31.5915 31.1963 33.847 28.9408C36.1025 26.6854 37.3712 23.6273 37.375 20.4376V16.0626C37.3738 15.1927 37.0278 14.3588 36.4127 13.7437C35.7976 13.1286 34.9636 12.7825 34.0937 12.7814H25.6172C23.6955 12.7768 21.7996 13.2247 20.0831 14.0888C18.3666 14.9529 16.8776 16.2089 15.7365 17.7552C14.5121 17.3576 13.2327 17.1555 11.9453 17.1564H3.46875C2.59886 17.1575 1.76493 17.5036 1.14983 18.1187C0.534726 18.7338 0.188654 19.5677 0.1875 20.4376V24.8126C0.191263 28.0023 1.46005 31.0604 3.71553 33.3158C5.97101 35.5713 9.02902 36.8401 12.2187 36.8439H17.6875V41.3569C16.9303 41.5539 16.2397 41.95 15.6873 42.504C15.1085 42.3269 14.4992 42.2719 13.8981 42.3423C13.2969 42.4128 12.7169 42.6072 12.1947 42.9133C11.6725 43.2194 11.2194 43.6304 10.8642 44.1205C10.509 44.6107 10.2594 45.1691 10.1311 45.7607C9.56994 45.6011 8.98257 45.5554 8.40353 45.6263C7.82449 45.6972 7.26549 45.8832 6.75945 46.1734C6.2534 46.4636 5.81054 46.8522 5.45695 47.3162C5.10337 47.7802 4.84619 48.3102 4.70059 48.8751H2.375V51.0626H5.65625C5.79989 51.0627 5.94214 51.0344 6.07485 50.9794C6.20757 50.9245 6.32816 50.8439 6.42973 50.7423C6.5313 50.6408 6.61187 50.5202 6.66682 50.3875C6.72177 50.2548 6.75004 50.1125 6.75 49.9689C6.75 49.3887 6.98047 48.8323 7.3907 48.4221C7.80094 48.0118 8.35734 47.7814 8.9375 47.7814C9.51766 47.7814 10.0741 48.0118 10.4843 48.4221C10.8945 48.8323 11.125 49.3887 11.125 49.9689H13.3125C13.3132 48.929 12.9417 47.9231 12.2652 47.1333C12.1985 46.815 12.2037 46.4859 12.2803 46.1699C12.357 45.8539 12.5032 45.5589 12.7084 45.3066C12.9135 45.0543 13.1724 44.851 13.4662 44.7114C13.7599 44.5719 14.0811 44.4997 14.4062 44.5001C14.4527 44.5001 14.4978 44.5042 14.543 44.5069C15.0975 44.543 15.6176 44.7882 15.9983 45.1929C16.379 45.5977 16.5918 46.1319 16.5937 46.6876H18.7812C18.7817 45.5946 18.3718 44.5412 17.6328 43.7358C18.0263 43.4905 18.4879 43.3773 18.9503 43.4127C19.4126 43.4481 19.8516 43.6303 20.2031 43.9327C19.9863 44.4597 19.8748 45.024 19.875 45.5939H22.0625C22.0623 45.0733 22.2478 44.5697 22.5857 44.1737C22.9235 43.7777 23.3916 43.5152 23.9058 43.4335C24.4199 43.3517 24.9463 43.4561 25.3903 43.7278C25.8344 43.9995 26.1669 44.4208 26.3281 44.9157C25.0764 45.385 23.9975 46.2248 23.2354 47.323C22.4733 48.4213 22.0641 49.7258 22.0625 51.0626H24.25C24.2498 50.1588 24.5295 49.2772 25.0507 48.5389C25.572 47.8005 26.3091 47.2418 27.1609 46.9395C28.0126 46.6372 28.9371 46.6062 29.8071 46.8507C30.6772 47.0952 31.4502 47.6033 32.0197 48.305C31.3245 48.6798 30.7436 49.2356 30.3385 49.9136C29.9335 50.5916 29.7193 51.3666 29.7187 52.1564H31.9062C31.9062 51.5762 32.1367 51.0198 32.547 50.6096C32.9572 50.1993 33.5136 49.9689 34.0937 49.9689C34.6739 49.9689 35.2303 50.1993 35.6405 50.6096C36.0508 51.0198 36.2812 51.5762 36.2812 52.1564H38.4687C38.469 51.5251 38.3318 50.9013 38.0668 50.3284C38.5297 50.0919 39.0421 49.9686 39.562 49.9689C40.0818 49.9691 40.5942 50.0928 41.0568 50.3298C40.7929 50.9026 40.6562 51.5257 40.6562 52.1564H42.8437C42.8437 51.5762 43.0742 51.0198 43.4844 50.6096C43.8947 50.1993 44.4511 49.9689 45.0312 49.9689C45.6114 49.9689 46.1678 50.1993 46.578 50.6096C46.9883 51.0198 47.2187 51.5762 47.2187 52.1564H49.4062C49.4064 51.5865 49.2949 51.0222 49.0781 50.4952C49.3957 50.2231 49.7846 50.0477 50.1989 49.9898C50.6131 49.932 51.0352 49.9943 51.4152 50.1691C51.7951 50.344 52.1169 50.6241 52.3424 50.9764C52.5679 51.3286 52.6877 51.7381 52.6875 52.1564C52.6875 52.3 52.7157 52.4423 52.7707 52.575C52.8256 52.7077 52.9062 52.8283 53.0078 52.9298C53.1093 53.0314 53.2299 53.112 53.3626 53.1669C53.4954 53.2219 53.6376 53.2502 53.7812 53.2501H62.5312V51.0626H54.7369C54.5739 50.4308 54.2716 49.8434 53.8521 49.3436C53.4326 48.8437 52.9066 48.4441 52.3127 48.1739C51.7187 47.9037 51.0718 47.7699 50.4194 47.7821C49.767 47.7944 49.1256 47.9525 48.5422 48.2449C48.8084 47.8222 49.0481 47.3834 49.2599 46.931L54.7725 35.1185C54.8926 34.8602 54.9074 34.5652 54.8137 34.2962C54.7201 34.0272 54.5253 33.8053 54.2707 33.6774L50.15 31.6171L52.6465 26.8511C53.4647 26.7313 54.2432 26.4201 54.9186 25.9429C55.594 25.4656 56.1472 24.8357 56.5334 24.1044ZM22.0625 41.8081C21.8721 41.9183 21.6902 42.0426 21.5184 42.18C21.0348 41.793 20.4747 41.5129 19.875 41.3583V35.7501C19.875 35.6065 19.8468 35.4642 19.7918 35.3315C19.7369 35.1988 19.6563 35.0782 19.5547 34.9766C19.4532 34.8751 19.3326 34.7945 19.1999 34.7395C19.0671 34.6846 18.9249 34.6563 18.7812 34.6564H16.5937C13.9839 34.6534 11.4819 33.6153 9.63648 31.7699C7.79106 29.9245 6.753 27.4224 6.75 24.8126V23.7189H4.5625V24.8126C4.56216 26.5879 4.95533 28.3412 5.71371 29.9464C6.47209 31.5516 7.57683 32.9687 8.94845 34.0958C7.02803 33.417 5.36498 32.1601 4.1879 30.4978C3.01083 28.8355 2.37751 26.8495 2.375 24.8126V20.4376C2.37538 20.1476 2.49074 19.8697 2.69577 19.6646C2.90081 19.4596 3.17879 19.3442 3.46875 19.3439H11.9453C14.6276 19.3471 17.1991 20.414 19.0957 22.3107C20.9924 24.2073 22.0593 26.7788 22.0625 29.4611V41.8081ZM17.8133 18.648C18.7601 17.4947 19.9514 16.5663 21.3011 15.93C22.6508 15.2937 24.125 14.9654 25.6172 14.9689H34.0937C34.3837 14.9692 34.6617 15.0846 34.8667 15.2896C35.0718 15.4947 35.1871 15.7726 35.1875 16.0626V20.4376C35.185 22.4754 34.5511 24.4623 33.3729 26.125C32.1948 27.7877 30.5303 29.0444 28.6086 29.7222C29.9789 28.5933 31.083 27.1757 31.8421 25.5708C32.6012 23.9658 32.9966 22.213 33 20.4376V19.3439H30.8125V20.4376C30.8079 22.4724 30.175 24.4562 29.0004 26.1178C27.8258 27.7794 26.1667 29.0377 24.25 29.7208V29.4611C24.2484 27.2465 23.6498 25.0733 22.517 23.1703C21.3842 21.2674 19.7593 19.7051 17.8133 18.648V18.648ZM52.3402 35.1581L47.2775 46.0068C46.9605 46.6856 46.5669 47.3259 46.1045 47.9153C45.4839 47.7579 44.8362 47.739 44.2074 47.8599C43.5787 47.9809 42.9843 48.2388 42.4664 48.6154C41.5964 48.0692 40.5897 47.78 39.5625 47.7814C39.5133 47.7814 39.4641 47.7841 39.4148 47.7855L42.7098 41.7425L40.7902 40.6952L36.5219 48.5196C35.8657 48.0792 35.1019 47.8259 34.3125 47.7868C34.1424 47.4911 33.9495 47.209 33.7355 46.9433C33.3476 44.6923 33.7551 42.3764 34.8881 40.3931L41.0924 29.5349L43.6695 30.8228L41.601 34.7726C41.4146 35.1279 41.3001 35.5165 41.2639 35.9161C41.2277 36.3157 41.2707 36.7185 41.3902 37.1015C41.5098 37.4845 41.7036 37.8402 41.9607 38.1483C42.2177 38.4564 42.5329 38.7108 42.8883 38.897C43.2437 39.0833 43.6323 39.1976 44.032 39.2337C44.4316 39.2697 44.8344 39.2266 45.2173 39.1069C45.6003 38.9872 45.9559 38.7932 46.2639 38.5361C46.5719 38.2789 46.8262 37.9636 47.0123 37.6081L49.1342 33.5558L52.3402 35.1581ZM45.075 36.5923C45.001 36.7331 44.8899 36.851 44.7538 36.9331C44.6176 37.0153 44.4616 37.0587 44.3025 37.0585C44.1324 37.0584 43.9663 37.0075 43.8254 36.9122C43.6464 36.7941 43.5179 36.6135 43.4648 36.4057C43.4118 36.198 43.4379 35.9779 43.5383 35.7884L48.7363 25.8626C49.0706 26.1151 49.4342 26.3262 49.8191 26.4915C49.9684 26.5561 50.1208 26.6131 50.2758 26.6624L45.075 36.5923ZM50.6805 24.4818C50.293 24.3154 49.9441 24.0708 49.6556 23.7632C49.3672 23.4557 49.1454 23.0919 49.0042 22.6945C48.863 22.2972 48.8054 21.875 48.8351 21.4544C48.8647 21.0338 48.981 20.6239 49.1766 20.2503L57.3428 4.66028C57.7027 3.98058 58.3044 3.46055 59.0291 3.20287C59.7538 2.94519 60.5487 2.96859 61.257 3.26846C61.6445 3.43481 61.9934 3.67943 62.2818 3.98698C62.5703 4.29453 62.7921 4.65837 62.9333 5.05568C63.0745 5.45299 63.1321 5.8752 63.1024 6.29581C63.0728 6.71643 62.9565 7.12637 62.7609 7.49993L54.5947 23.0899C54.2348 23.7696 53.6331 24.2897 52.9084 24.5474C52.1837 24.805 51.3887 24.7816 50.6805 24.4818H50.6805Z" fill="#FFFFFF"/>
</svg>
