<svg width="44" height="57" viewBox="0 0 44 57" fill="none" xmlns="http://www.w3.org/2000/svg">
<path d="M29.98 56.702C28.056 56.702 26.574 56.182 25.534 55.142C24.494 54.102 23.974 52.594 23.974 50.618V46.172H6.502C4.578 46.172 3.044 45.756 1.9 44.924C0.756 44.04 0.184 42.714 0.184 40.946C0.184 39.906 0.418 38.866 0.886 37.826C1.354 36.734 2.186 35.356 3.382 33.692L23.584 4.286C24.468 2.934 25.43 1.946 26.47 1.322C27.562 0.645997 28.836 0.307996 30.292 0.307996C32.008 0.307996 33.36 0.827997 34.348 1.868C35.336 2.856 35.83 4.364 35.83 6.392V36.656H38.716C42.2 36.656 43.942 38.242 43.942 41.414C43.942 44.586 42.2 46.172 38.716 46.172H35.83V50.618C35.83 52.594 35.31 54.102 34.27 55.142C33.282 56.182 31.852 56.702 29.98 56.702ZM23.974 36.656V18.482L11.65 36.656H23.974Z" fill="#FFFFFF"/>
</svg>
