<svg width="41" height="57" viewBox="0 0 41 57" fill="none" xmlns="http://www.w3.org/2000/svg">
<path d="M20.074 56.858C17.318 56.858 14.51 56.546 11.65 55.922C8.842 55.298 6.398 54.362 4.318 53.114C2.654 52.23 1.614 51.138 1.198 49.838C0.782 48.486 0.834 47.238 1.354 46.094C1.926 44.95 2.836 44.144 4.084 43.676C5.332 43.156 6.762 43.286 8.374 44.066C10.402 45.054 12.326 45.756 14.146 46.172C15.966 46.588 17.786 46.796 19.606 46.796C25.95 46.796 29.122 44.43 29.122 39.698C29.122 35.33 26.158 33.146 20.23 33.146H15.628C13.912 33.146 12.586 32.73 11.65 31.898C10.766 31.014 10.324 29.818 10.324 28.31C10.324 26.75 10.766 25.554 11.65 24.722C12.586 23.838 13.912 23.396 15.628 23.396H19.06C21.66 23.396 23.714 22.798 25.222 21.602C26.73 20.406 27.484 18.742 27.484 16.61C27.484 12.346 24.702 10.214 19.138 10.214C17.422 10.214 15.758 10.422 14.146 10.838C12.586 11.202 10.87 11.878 8.998 12.866C7.542 13.594 6.242 13.724 5.098 13.256C3.954 12.788 3.096 11.982 2.524 10.838C2.004 9.694 1.9 8.498 2.212 7.25C2.524 6.002 3.434 4.962 4.942 4.13C9.466 1.478 14.562 0.151998 20.23 0.151998C26.158 0.151998 30.786 1.478 34.114 4.13C37.442 6.782 39.106 10.422 39.106 15.05C39.106 17.91 38.378 20.432 36.922 22.616C35.466 24.8 33.438 26.386 30.838 27.374C33.958 28.258 36.376 29.896 38.092 32.288C39.86 34.628 40.744 37.462 40.744 40.79C40.744 45.782 38.898 49.708 35.206 52.568C31.514 55.428 26.47 56.858 20.074 56.858Z" fill="#FFFFFF"/>
</svg>
