<svg width="41" height="56" viewBox="0 0 41 56" fill="none" xmlns="http://www.w3.org/2000/svg">
<path d="M7.764 56C5.788 56 4.358 55.558 3.474 54.674C2.59 53.738 2.148 52.386 2.148 50.618C2.148 49.474 2.434 48.408 3.006 47.42C3.578 46.432 4.358 45.418 5.346 44.378L20.01 28.934C22.194 26.594 23.754 24.514 24.69 22.694C25.678 20.874 26.172 19.054 26.172 17.234C26.172 12.554 23.286 10.214 17.514 10.214C16.006 10.214 14.446 10.422 12.834 10.838C11.274 11.254 9.636 11.982 7.92 13.022C6.516 13.854 5.216 14.036 4.02 13.568C2.876 13.1 2.018 12.294 1.446 11.15C0.926 10.006 0.796 8.81 1.056 7.562C1.368 6.262 2.226 5.196 3.63 4.364C5.918 2.96 8.414 1.92 11.118 1.244C13.822 0.515998 16.5 0.151998 19.152 0.151998C25.288 0.151998 29.968 1.53 33.192 4.286C36.468 6.99 38.106 10.864 38.106 15.908C38.106 19.236 37.326 22.434 35.766 25.502C34.258 28.518 31.762 31.794 28.278 35.33L17.67 46.094H35.766C39.146 46.094 40.836 47.732 40.836 51.008C40.836 54.336 39.146 56 35.766 56H7.764Z" fill="#FFFFFF"/>
</svg>
