<svg width="19" height="24" viewBox="0 0 19 24" fill="none" xmlns="http://www.w3.org/2000/svg">
<path d="M12.0625 1.625V5.39844C5.05414 3.26563 -2.24227 9.7945 0.701151 17.9477C1.3913 19.8695 2.78703 21.4566 4.60488 22.3867C11.6179 25.9552 18.625 20.916 18.625 14.2715V1.625C18.625 1.33492 18.5097 1.05672 18.3046 0.851601C18.0995 0.646483 17.8213 0.53125 17.5312 0.53125H13.1562C12.8662 0.53125 12.588 0.646483 12.3828 0.851601C12.1777 1.05672 12.0625 1.33492 12.0625 1.625ZM9.32811 19.1934C8.35465 19.1934 7.40306 18.9047 6.59366 18.3639C5.78426 17.8231 5.15341 17.0544 4.78089 16.155C4.40836 15.2557 4.31089 14.266 4.5008 13.3113C4.69071 12.3565 5.15948 11.4795 5.84781 10.7912C6.53615 10.1029 7.41314 9.6341 8.3679 9.44419C9.32265 9.25427 10.3123 9.35174 11.2116 9.72427C12.111 10.0968 12.8797 10.7276 13.4205 11.537C13.9613 12.3464 14.25 13.298 14.25 14.2715C14.2485 15.5764 13.7295 16.8275 12.8068 17.7502C11.8841 18.6729 10.633 19.1919 9.32811 19.1934Z" fill="white"/>
</svg>
