<svg width="21" height="19" viewBox="0 0 21 19" fill="none" xmlns="http://www.w3.org/2000/svg">
<path d="M11.7428 0.0395761C5.20637 -0.352943 0.750567 6.43801 3 12.0546H1.90625C1.61617 12.0546 1.33797 12.1698 1.13285 12.3749C0.927733 12.58 0.8125 12.8582 0.8125 13.1483V17.5233C0.8125 17.8134 0.927733 18.0916 1.13285 18.2967C1.33797 18.5018 1.61617 18.6171 1.90625 18.6171H11.2031C12.4624 18.6157 13.7083 18.3587 14.8653 17.8618C16.0224 17.3649 17.0666 16.6384 17.9347 15.7262C18.8028 14.814 19.4768 13.7351 19.9158 12.5548C20.3548 11.3746 20.5497 10.1175 20.4888 8.85971C20.2601 4.14442 16.4552 0.322584 11.7428 0.0395761ZM11.2031 14.2421C10.2297 14.2421 9.27808 13.9534 8.46868 13.4126C7.65928 12.8717 7.02843 12.1031 6.6559 11.2037C6.28338 10.3043 6.18591 9.31472 6.37582 8.35997C6.56574 7.40522 7.0345 6.52823 7.72283 5.83989C8.41117 5.15155 9.28817 4.68279 10.2429 4.49288C11.1977 4.30297 12.1873 4.40044 13.0866 4.77296C13.986 5.14549 14.7547 5.77634 15.2955 6.58573C15.8363 7.39513 16.125 8.34672 16.125 9.32018C16.1236 10.6251 15.6045 11.8762 14.6818 12.7989C13.7591 13.7216 12.508 14.2406 11.2031 14.2421V14.2421Z" fill="white"/>
</svg>
