<svg width="71" height="41" viewBox="0 0 71 41" fill="none" xmlns="http://www.w3.org/2000/svg">
<path d="M68.391 36.4034H66.8327C65.7934 36.4034 64.7963 35.9906 64.0614 35.2558L63.2539 34.4483V30.6917C63.6871 30.0279 64.1656 29.0457 64.1656 27.9498C64.1656 25.9487 62.5703 24.3268 62.5703 24.3268C62.5703 24.3268 60.9751 25.9487 60.9751 27.9498C60.9751 29.0463 61.4536 30.0279 61.8868 30.6917V31.6274C61.7677 31.4068 61.6181 31.1959 61.4317 31.0089C60.416 29.9937 58.6781 30.085 58.6781 30.085C58.6781 30.085 58.5863 31.8234 59.6015 32.8386C60.2867 33.5238 61.2993 33.7043 61.8868 33.7497V34.4483L61.0793 35.2558C60.3444 35.9906 59.3473 36.4034 58.308 36.4034H55.485C54.4457 36.4034 53.4486 35.9906 52.7138 35.2558L52.4772 35.0186C51.7845 34.326 50.6609 34.326 49.9682 35.0186L49.7316 35.2558C48.9967 35.9906 47.9997 36.4034 46.9604 36.4034H38.7145C40.1186 35.6616 40.8443 34.005 40.3605 32.4311L36.5911 20.5734C36.2151 19.3489 35.178 18.4431 33.9139 18.2353L33.2191 18.1211L27.5773 24.0309L30.7549 24.5543L33.9101 34.413C34.1841 35.3049 34.7945 35.9997 35.5588 36.4034H23.4789C25.1831 35.503 25.7775 33.3764 24.8216 31.7288L18.1036 20.1515L23.2888 25.702L32.3806 16.1776L29.4225 8.94915L34.5211 16.2155C34.7118 16.4874 34.9505 16.7213 35.2261 16.9061L44.7964 23.3319C46.0365 24.165 47.7123 23.8307 48.5417 22.5959C49.3519 21.39 49.0566 19.7692 47.896 18.9179V14.6956C48.3286 14.0318 48.8071 13.0502 48.8071 11.9538C48.8071 9.95264 47.2124 8.33071 47.2124 8.33071C47.2124 8.33071 45.6172 9.95264 45.6172 11.9538C45.6172 13.0502 46.0957 14.0318 46.5289 14.6961V17.9929L38.652 12.7041L33.8412 5.84787L37.1375 8.83112L39.3597 10.75L44.4006 14.1348C44.1518 13.4892 43.9766 12.7516 43.9766 11.9538C43.9766 11.1302 44.1635 10.3703 44.4247 9.71018H40.7856L30.6342 1.48089C28.9963 -0.0828357 26.4008 -0.022487 24.8376 1.61547L10.9142 16.4195C9.93843 17.4567 9.65912 19.0434 10.4143 20.3443C11.4909 22.2002 14.6921 27.7175 16.0443 30.0482H6.26252C4.40239 30.0482 2.83066 31.5184 2.80716 33.3785C2.79061 34.6891 3.52227 35.8304 4.60106 36.4034H2.55081C1.38977 36.4034 0.447161 37.3754 0.502169 38.553C0.554507 39.6564 1.50566 40.505 2.61009 40.505H68.4493C69.6146 40.505 70.5534 39.533 70.4979 38.3554C70.4456 37.2521 69.4955 36.4034 68.391 36.4034V36.4034Z" fill="white"/>
</svg>
