<svg width="46" height="30" viewBox="0 0 46 30" fill="none" xmlns="http://www.w3.org/2000/svg">
<path d="M42.2968 12.8224C43.4562 12.8224 44.5561 13.0257 45.6454 13.3438C44.4612 10.3763 41.9462 8.03256 38.704 7.18477C11.7805 0.220729 15.5832 1.24858 13.9459 0.826121C9.81027 -0.213351 5.05588 1.5711 2.73467 5.28616L0.472656 8.86026C7.73324 9.56627 13.4493 15.6337 13.4493 23.0763C13.4493 25.2156 12.9432 27.3128 12.0272 29.2286H30.7165C30.7113 29.2133 30.7024 29.1998 30.6972 29.1846C30.2406 27.967 29.9923 26.569 29.9923 25.127C29.9921 18.3418 35.5116 12.8224 42.2968 12.8224ZM19.6015 18.9747C19.6015 20.1082 18.6843 21.0255 17.5507 21.0255C16.4172 21.0255 15.5 20.1082 15.5 18.9747V14.8731C15.5 13.7396 16.4172 12.8224 17.5507 12.8224C18.6843 12.8224 19.6015 13.7396 19.6015 14.8731V18.9747ZM27.9414 18.9747C27.9414 20.1082 27.0241 21.0255 25.8906 21.0255C24.757 21.0255 23.8398 20.1082 23.8398 18.9747V14.8731C23.8398 13.7396 24.757 12.8224 25.8906 12.8224C27.0241 12.8224 27.9414 13.7396 27.9414 14.8731V18.9747Z" fill="#00730C"/>
</svg>
