<svg width="23" height="9" viewBox="0 0 23 9" fill="none" xmlns="http://www.w3.org/2000/svg">
<path d="M13.7482 6.73175L13.7483 6.73148L17.3409 1.11482C18.8699 1.48329 20.0908 1.99016 20.9318 2.5864C21.8052 3.20561 22.2363 3.89525 22.2363 4.60547C22.2363 5.2271 21.9307 5.79552 21.3525 6.30956C20.7717 6.826 19.9305 7.27264 18.9064 7.63772C16.8598 8.36733 14.1432 8.75 11.5 8.75C8.8568 8.75 6.14025 8.36733 4.09362 7.63772C3.06952 7.27264 2.22833 6.826 1.64746 6.30956C1.06929 5.79552 0.763672 5.2271 0.763672 4.60547C0.763672 3.89576 1.19422 3.20659 2.06643 2.58768C2.90627 1.99175 4.12553 1.48499 5.65255 1.11636L9.25102 6.73306L9.25105 6.73311C10.2993 8.36839 12.695 8.37374 13.7482 6.73175Z" stroke="white" stroke-width="0.5"/>
</svg>
