<svg width="115" height="30" viewBox="0 0 115 30" fill="none" xmlns="http://www.w3.org/2000/svg">
<path d="M2.64 29.32C0.933334 29.32 0.0800003 28.44 0.0800003 26.68V3.4C0.0800003 1.66666 0.946667 0.799998 2.68 0.799998H12.32C15.4133 0.799998 17.8 1.57333 19.48 3.12C21.16 4.66667 22 6.82667 22 9.6C22 12.3733 21.16 14.5467 19.48 16.12C17.8 17.6667 15.4133 18.44 12.32 18.44H5.2V26.68C5.2 28.44 4.34667 29.32 2.64 29.32ZM5.2 14.4H11.52C15.2 14.4 17.04 12.8 17.04 9.6C17.04 6.42667 15.2 4.84 11.52 4.84H5.2V14.4ZM32.3738 29.4C27.9204 29.4 25.6938 26.9067 25.6938 21.92V3C25.6938 1.32 26.5204 0.479998 28.1738 0.479998C29.8538 0.479998 30.6938 1.32 30.6938 3V21.68C30.6938 24.08 31.6938 25.28 33.6938 25.28C33.9071 25.28 34.1071 25.28 34.2938 25.28C34.4804 25.2533 34.6671 25.2267 34.8537 25.2C35.2271 25.1467 35.4804 25.2533 35.6138 25.52C35.7471 25.76 35.8138 26.2667 35.8138 27.04C35.8138 27.7067 35.6804 28.2267 35.4138 28.6C35.1471 28.9733 34.7071 29.2 34.0938 29.28C33.5338 29.36 32.9604 29.4 32.3738 29.4ZM44.9072 29.4C43.4939 29.4 42.2272 29.1333 41.1072 28.6C40.0139 28.04 39.1472 27.2933 38.5072 26.36C37.8939 25.4267 37.5872 24.3733 37.5872 23.2C37.5872 21.76 37.9605 20.6267 38.7072 19.8C39.4539 18.9467 40.6672 18.3333 42.3472 17.96C44.0272 17.5867 46.2805 17.4 49.1072 17.4H50.5072V16.56C50.5072 15.2267 50.2139 14.2667 49.6272 13.68C49.0405 13.0933 48.0539 12.8 46.6672 12.8C45.8939 12.8 45.0539 12.8933 44.1472 13.08C43.2672 13.2667 42.3339 13.5867 41.3472 14.04C40.7072 14.3333 40.1739 14.3733 39.7472 14.16C39.3205 13.92 39.0272 13.56 38.8672 13.08C38.7339 12.5733 38.7605 12.0667 38.9472 11.56C39.1605 11.0533 39.5739 10.68 40.1872 10.44C41.4139 9.93333 42.5872 9.57333 43.7072 9.36C44.8539 9.14667 45.8939 9.04 46.8272 9.04C49.6805 9.04 51.8005 9.70667 53.1872 11.04C54.5739 12.3467 55.2672 14.3867 55.2672 17.16V26.76C55.2672 28.4667 54.4939 29.32 52.9472 29.32C51.3739 29.32 50.5872 28.4667 50.5872 26.76V25.88C50.1339 26.9733 49.4139 27.84 48.4272 28.48C47.4405 29.0933 46.2672 29.4 44.9072 29.4ZM45.9472 25.96C47.2539 25.96 48.3339 25.5067 49.1872 24.6C50.0672 23.6933 50.5072 22.5467 50.5072 21.16V20.28H49.1472C46.6405 20.28 44.8939 20.48 43.9072 20.88C42.9472 21.2533 42.4672 21.9467 42.4672 22.96C42.4672 23.84 42.7739 24.56 43.3872 25.12C44.0005 25.68 44.8539 25.96 45.9472 25.96ZM62.8222 29.32C61.1689 29.32 60.3422 28.4667 60.3422 26.76V11.64C60.3422 9.96 61.1555 9.12 62.7822 9.12C64.4089 9.12 65.2222 9.96 65.2222 11.64V12.48C65.8889 11.36 66.7822 10.5067 67.9022 9.92C69.0489 9.33333 70.3289 9.04 71.7422 9.04C76.3555 9.04 78.6622 11.72 78.6622 17.08V26.76C78.6622 28.4667 77.8355 29.32 76.1822 29.32C74.5022 29.32 73.6622 28.4667 73.6622 26.76V17.32C73.6622 15.8 73.3689 14.6933 72.7822 14C72.2222 13.3067 71.3422 12.96 70.1422 12.96C68.6755 12.96 67.5022 13.4267 66.6222 14.36C65.7689 15.2667 65.3422 16.48 65.3422 18V26.76C65.3422 28.4667 64.5022 29.32 62.8222 29.32ZM92.7006 29.4C87.5273 29.4 84.9406 26.84 84.9406 21.72V13.2H82.8606C81.5273 13.2 80.8606 12.5733 80.8606 11.32C80.8606 10.0667 81.5273 9.44 82.8606 9.44H84.9406V5.8C84.9406 4.12 85.7806 3.28 87.4606 3.28C89.114 3.28 89.9406 4.12 89.9406 5.8V9.44H94.1806C95.514 9.44 96.1806 10.0667 96.1806 11.32C96.1806 12.5733 95.514 13.2 94.1806 13.2H89.9406V21.44C89.9406 22.72 90.2206 23.68 90.7806 24.32C91.3406 24.96 92.2473 25.28 93.5006 25.28C93.954 25.28 94.354 25.24 94.7006 25.16C95.0473 25.08 95.354 25.0267 95.6206 25C95.9406 24.9733 96.2073 25.08 96.4206 25.32C96.634 25.5333 96.7406 25.9867 96.7406 26.68C96.7406 27.2133 96.6473 27.6933 96.4606 28.12C96.3006 28.52 95.994 28.8 95.5406 28.96C95.194 29.0667 94.7406 29.16 94.1806 29.24C93.6206 29.3467 93.1273 29.4 92.7006 29.4Z" fill="#0B0B0B"/>
<path d="M106.252 29.4C105.106 29.4 103.892 29.28 102.612 29.04C101.332 28.8 100.186 28.3867 99.1722 27.8C98.6122 27.48 98.2655 27.0933 98.1322 26.64C97.9989 26.16 98.0122 25.72 98.1722 25.32C98.3589 24.8933 98.6522 24.5867 99.0522 24.4C99.4789 24.2133 99.9722 24.2533 100.532 24.52C101.599 25.0267 102.599 25.3867 103.532 25.6C104.466 25.7867 105.386 25.88 106.292 25.88C107.572 25.88 108.519 25.6667 109.132 25.24C109.772 24.7867 110.092 24.2 110.092 23.48C110.092 22.36 109.266 21.64 107.612 21.32L103.612 20.56C100.226 19.92 98.5322 18.16 98.5322 15.28C98.5322 14 98.8789 12.8933 99.5722 11.96C100.292 11.0267 101.279 10.3067 102.532 9.8C103.786 9.29333 105.226 9.04 106.852 9.04C109.199 9.04 111.292 9.56 113.132 10.6C113.639 10.8667 113.932 11.24 114.012 11.72C114.119 12.1733 114.066 12.6133 113.852 13.04C113.666 13.44 113.359 13.7333 112.932 13.92C112.506 14.08 112.012 14.0267 111.452 13.76C110.626 13.3333 109.826 13.0267 109.052 12.84C108.306 12.6533 107.586 12.56 106.892 12.56C105.586 12.56 104.612 12.7867 103.972 13.24C103.359 13.6933 103.052 14.2933 103.052 15.04C103.052 16.2133 103.812 16.9333 105.332 17.2L109.332 17.96C111.066 18.28 112.372 18.8667 113.252 19.72C114.159 20.5733 114.612 21.72 114.612 23.16C114.612 25.1067 113.852 26.64 112.332 27.76C110.812 28.8533 108.786 29.4 106.252 29.4Z" fill="#00730C"/>
</svg>
