<svg width="17" height="17" viewBox="0 0 17 17" fill="none" xmlns="http://www.w3.org/2000/svg">
<path d="M6.52208 5.62275C6.86916 5.36032 7.30628 5.24652 7.73727 5.30637C7.95068 5.33601 8.15616 5.40739 8.34197 5.51644C8.52779 5.62549 8.69031 5.77007 8.82026 5.94193C8.9502 6.11378 9.04502 6.30955 9.09931 6.51805C9.15359 6.72656 9.16628 6.94371 9.13664 7.15711C9.107 7.37052 9.03562 7.576 8.92657 7.76182C8.81752 7.94764 8.67294 8.11016 8.50109 8.2401C6.06983 10.244 4.00082 12.6505 2.38429 15.3548C2.22022 15.6318 2.06491 15.91 1.91466 16.1888C3.11273 16.0496 4.30308 15.8505 5.48124 15.5923C8.93599 14.8144 11.6449 12.6727 12.7282 9.86377L16.4655 0.17041C10.673 0.44918 5.76165 2.42969 2.88495 5.67607C1.08915 7.70252 0.136904 10.1287 0.0383301 12.907C2.91476 8.38106 6.36896 5.73856 6.52208 5.62275V5.62275Z" fill="white"/>
</svg>
