<svg width="17" height="17" viewBox="0 0 17 17" fill="none" xmlns="http://www.w3.org/2000/svg">
<path d="M1.87944 16.7208C5.19159 16.9999 8.07964 16.1329 10.4711 14.1342C13.7999 11.3526 15.9231 6.50159 16.3707 0.719482L6.57204 4.17341C3.73226 5.17432 1.51345 7.81997 0.634619 11.2505C0.426259 12.0647 0.239912 12.9595 0.0754395 13.9242L7.34888 7.2735C7.50773 7.12724 7.69388 7.01377 7.89668 6.9396C8.09947 6.86544 8.31492 6.83203 8.53065 6.84131C8.74638 6.85058 8.95816 6.90235 9.15385 6.99365C9.34953 7.08494 9.52527 7.21397 9.67098 7.37333C9.81669 7.53269 9.9295 7.71924 10.003 7.9223C10.0764 8.12535 10.1091 8.34091 10.099 8.55661C10.089 8.77231 10.0365 8.9839 9.94452 9.17927C9.85254 9.37463 9.7229 9.54991 9.56303 9.69507L1.87944 16.7208Z" fill="white"/>
</svg>
