<svg width="39" height="50" viewBox="0 0 39 50" fill="none" xmlns="http://www.w3.org/2000/svg">
<path d="M15.6362 28.8737C15.5356 29.1548 15.4448 29.4343 15.3605 29.7135C14.2911 24.5065 12.2023 19.5659 9.29112 15.3825L5.23276 9.55031C5.12921 9.40148 4.97077 9.29988 4.7923 9.26787C4.61383 9.23586 4.42996 9.27606 4.28113 9.37962C4.1323 9.48318 4.03071 9.64161 3.9987 9.82008C3.96669 9.99855 4.00688 10.1824 4.11044 10.3312L8.1688 16.1634C11.1119 20.3925 13.1864 25.428 14.1679 30.7253C14.397 31.9617 14.585 33.1774 14.7316 34.3586C14.754 34.9165 14.8154 35.4721 14.9153 36.0214H14.919C14.9204 36.029 14.9234 36.0359 14.925 36.0435C14.1147 36.3213 13.3232 36.6301 12.5598 36.9699C12.1592 37.1477 11.7594 37.3339 11.3713 37.522C7.4919 39.4023 4.47521 39.9519 0.982315 40.589C0.774776 40.6268 0.566234 40.6648 0.356689 40.7033C1.10497 40.8636 1.84261 41.0701 2.56538 41.3216C4.16247 41.8772 5.70304 42.5836 7.16624 43.4313C7.62179 43.6954 8.29567 44.0957 9.0639 44.5584C14.5534 47.8652 25.9441 50.6132 38.3411 49.0737L34.6984 41.4097C34.2242 40.4031 33.6307 39.4572 32.9306 38.5924C31.4793 36.815 29.867 35.8278 27.3685 35.1881L27.0322 35.1207C25.5876 34.8333 24.1183 34.689 22.6454 34.6897C20.7197 34.6865 18.8017 34.9347 16.9403 35.428C16.7078 35.49 16.4773 35.5554 16.2475 35.6226C16.2028 35.1676 16.1519 34.7069 16.0948 34.2405C16.0394 32.6748 16.3166 31.0307 16.9236 29.3338C17.7288 27.0544 19.0769 25.0053 20.8512 23.3634L28.9168 15.9883C29.0504 15.8659 29.13 15.6954 29.138 15.5144C29.146 15.3334 29.0818 15.1566 28.9595 15.0229C28.8373 14.8892 28.6669 14.8095 28.4859 14.8013C28.3049 14.7931 28.1281 14.8571 27.9942 14.9793L19.9287 22.3548C18.6804 23.5035 17.6234 24.8441 16.7978 26.326C15.6591 23.2605 15.2733 20.1647 15.6531 17.1057C15.9992 14.3178 16.9775 11.5463 18.5608 8.86781C21.2778 4.2716 24.8803 1.51015 24.9242 1.47666C25.0672 1.36674 25.161 1.20479 25.1851 1.02607C25.2092 0.847344 25.1617 0.666337 25.0529 0.522475C24.9442 0.378612 24.783 0.283551 24.6045 0.257998C24.4259 0.232445 24.2446 0.278472 24.0998 0.386051C23.9448 0.503356 20.2688 3.31183 17.4084 8.1309C14.7644 12.5848 12.3847 19.6328 15.9872 27.9759C15.8621 28.2711 15.7452 28.5704 15.6362 28.8737ZM11.1218 42.9584C10.7904 42.9584 10.4665 42.8601 10.191 42.676C9.9155 42.4919 9.70077 42.2303 9.57396 41.9241C9.44716 41.618 9.41398 41.2811 9.47863 40.9562C9.54327 40.6312 9.70283 40.3327 9.93713 40.0984C10.1714 39.864 10.47 39.7045 10.7949 39.6398C11.1199 39.5752 11.4568 39.6084 11.7629 39.7352C12.069 39.862 12.3307 40.0767 12.5148 40.3522C12.6989 40.6277 12.7971 40.9517 12.7971 41.283C12.7966 41.7272 12.62 42.153 12.3059 42.4671C11.9918 42.7812 11.566 42.9578 11.1218 42.9584ZM33.2702 45.1798C33.4776 45.1797 33.6803 45.241 33.8527 45.3562C34.0252 45.4713 34.1596 45.6349 34.239 45.8265C34.3185 46.018 34.3393 46.2288 34.2989 46.4321C34.2585 46.6355 34.1587 46.8223 34.0122 46.969C33.8656 47.1156 33.6788 47.2155 33.4755 47.256C33.2721 47.2965 33.0613 47.2758 32.8698 47.1965C32.6782 47.1171 32.5144 46.9828 32.3992 46.8104C32.284 46.638 32.2225 46.4353 32.2225 46.228C32.2228 45.9501 32.3334 45.6836 32.5299 45.4871C32.7264 45.2906 32.9929 45.18 33.2708 45.1798H33.2702ZM28.2423 39.6153C28.5262 39.6153 28.8037 39.6995 29.0398 39.8572C29.2759 40.015 29.4599 40.2392 29.5685 40.5015C29.6772 40.7638 29.7056 41.0524 29.6502 41.3309C29.5948 41.6094 29.4581 41.8652 29.2573 42.0659C29.0566 42.2667 28.8008 42.4034 28.5223 42.4588C28.2438 42.5142 27.9552 42.4858 27.6929 42.3771C27.4306 42.2685 27.2064 42.0845 27.0486 41.8484C26.8909 41.6123 26.8067 41.3348 26.8067 41.0509C26.8071 40.6702 26.9586 40.3052 27.2278 40.0361C27.4971 39.7669 27.8621 39.6156 28.2428 39.6153H28.2423ZM23.3085 44.3139C23.6276 44.3139 23.9395 44.4085 24.2048 44.5858C24.4701 44.7631 24.6769 45.015 24.799 45.3098C24.9211 45.6046 24.953 45.929 24.8908 46.2419C24.8285 46.5549 24.6749 46.8423 24.4492 47.068C24.2236 47.2936 23.9362 47.4472 23.6232 47.5095C23.3103 47.5717 22.9859 47.5398 22.6911 47.4177C22.3963 47.2956 22.1444 47.0888 21.9671 46.8235C21.7898 46.5582 21.6952 46.2463 21.6952 45.9272C21.6957 45.4995 21.8658 45.0894 22.1682 44.787C22.4707 44.4845 22.8808 44.3144 23.3085 44.3139ZM20.4027 36.4753C20.683 36.4753 20.957 36.5584 21.1901 36.7141C21.4233 36.8698 21.6049 37.0912 21.7122 37.3502C21.8195 37.6091 21.8476 37.8941 21.7929 38.1691C21.7383 38.444 21.6033 38.6966 21.4051 38.8948C21.2069 39.0931 20.9543 39.2281 20.6794 39.2828C20.4044 39.3375 20.1194 39.3094 19.8604 39.2021C19.6014 39.0949 19.3801 38.9132 19.2243 38.6801C19.0686 38.447 18.9854 38.173 18.9854 37.8927C18.9859 37.5169 19.1353 37.1567 19.401 36.891C19.6667 36.6252 20.0269 36.4758 20.4027 36.4753ZM17.5841 41.3061C17.7753 41.3061 17.9622 41.3628 18.1212 41.469C18.2802 41.5753 18.4041 41.7263 18.4772 41.9029C18.5504 42.0796 18.5695 42.274 18.5322 42.4615C18.4949 42.649 18.4028 42.8213 18.2676 42.9565C18.1324 43.0917 17.9601 43.1837 17.7726 43.221C17.5851 43.2583 17.3907 43.2391 17.214 43.166C17.0374 43.0928 16.8864 42.9688 16.7802 42.8098C16.674 42.6508 16.6173 42.4639 16.6173 42.2727C16.6176 42.0164 16.7196 41.7707 16.9008 41.5895C17.0821 41.4083 17.3278 41.3064 17.5841 41.3061Z" fill="#00730C"/>
</svg>
