<svg width="51" height="27" viewBox="0 0 51 27" fill="none" xmlns="http://www.w3.org/2000/svg">
<g filter="url(#filter0_d_11135_3466)">
<path d="M49.193 7.52835C47.8076 6.25167 45.7843 6.10751 44.2568 7.0729C42.2554 5.56415 39.5529 5.73323 37.7108 7.57534L33.2161 12.07C33.0143 11.8528 32.7833 11.6619 32.5275 11.5039C31.9828 11.1679 31.3522 10.9902 30.7039 10.9902H21.9724C18.8952 8.61799 14.6917 8.14887 11.1602 9.8098L8.67287 10.9797H1.47673C0.937281 10.9797 0.5 11.417 0.5 11.9564V23.3761C0.5 23.9154 0.937281 24.3528 1.47673 24.3528H8.8688C9.40815 24.3528 9.84553 23.9154 9.84553 23.3761V21.621L18.4594 25.852C18.5934 25.9178 18.7408 25.952 18.89 25.952L37.033 25.9518C37.294 25.9518 37.5442 25.8474 37.7276 25.6616C37.7994 25.5889 44.9629 18.3344 49.4823 13.2337C50.9452 11.5828 50.8155 9.02343 49.193 7.52835ZM7.89208 22.3992H2.45346V12.9331H7.89208V22.3992ZM39.0921 8.95662C40.1387 7.91006 41.5818 7.73161 42.7646 8.42274L34.8171 16.3703L33.5068 16.3704C33.9924 15.666 34.2022 14.8037 34.0943 13.9544L39.0921 8.95662ZM48.0203 11.9383C44.0482 16.4212 38.0021 22.5968 36.6241 23.9983L19.117 23.9985L9.84553 19.4445V12.5868L11.9917 11.5774C14.9502 10.1859 18.4892 10.634 21.0076 12.7192C21.1828 12.8642 21.4032 12.9436 21.6305 12.9436H30.7041C30.994 12.9436 31.2624 13.0186 31.5018 13.1662C31.843 13.3769 32.0714 13.7164 32.1446 14.1221C32.2216 14.5485 32.1135 14.9892 31.8478 15.3312L31.0405 16.3707H23.2051C22.6657 16.3707 22.2284 16.8081 22.2284 17.3474C22.2284 17.8868 22.6657 18.3241 23.2051 18.3241L35.222 18.3236C35.481 18.3236 35.7294 18.2207 35.9126 18.0376L44.9249 9.02509C45.7343 8.21568 47.0275 8.18931 47.8693 8.96483C48.7148 9.74416 48.7826 11.078 48.0203 11.9383Z" fill="white"/>
</g>
<defs>
<filter id="filter0_d_11135_3466" x="-9.5" y="0.0549316" width="70" height="39.897" filterUnits="userSpaceOnUse" color-interpolation-filters="sRGB">
<feFlood flood-opacity="0" result="BackgroundImageFix"/>
<feColorMatrix in="SourceAlpha" type="matrix" values="0 0 0 0 0 0 0 0 0 0 0 0 0 0 0 0 0 0 127 0" result="hardAlpha"/>
<feOffset dy="4"/>
<feGaussianBlur stdDeviation="5"/>
<feComposite in2="hardAlpha" operator="out"/>
<feColorMatrix type="matrix" values="0 0 0 0 0 0 0 0 0 0 0 0 0 0 0 0 0 0 0.2 0"/>
<feBlend mode="normal" in2="BackgroundImageFix" result="effect1_dropShadow_11135_3466"/>
<feBlend mode="normal" in="SourceGraphic" in2="effect1_dropShadow_11135_3466" result="shape"/>
</filter>
</defs>
</svg>
