<svg width="45" height="23" viewBox="0 0 45 23" fill="none" xmlns="http://www.w3.org/2000/svg">
<path fill-rule="evenodd" clip-rule="evenodd" d="M44.3803 20.9657C44.3803 20.2455 43.7966 19.6618 43.0764 19.6618H23.5176V16.2063C23.7742 15.8829 24.0485 15.5739 24.3391 15.2805C24.6141 14.9859 24.9057 14.7072 25.2127 14.446H32.645C37.6836 14.4402 41.7668 10.3572 41.7724 5.31864V0.246338C39.3648 1.85704 36.5326 2.71487 33.6359 2.71075C29.1616 2.71365 25.3276 5.91152 24.5215 10.3126L24.2477 11.8511C23.5198 12.4208 22.8395 13.0487 22.2136 13.7288C21.5877 13.0487 20.9074 12.4208 20.1795 11.8511L19.9057 10.3126C19.0996 5.91137 15.2656 2.71365 10.7912 2.71075C7.89455 2.71487 5.06234 1.85704 2.65477 0.246338V5.31864C2.66058 10.3572 6.74363 14.4404 11.7822 14.446H19.2145C19.8312 14.9807 20.3986 15.5699 20.9096 16.2063V19.6617H1.35075C0.630584 19.6617 0.046875 20.2455 0.046875 20.9655C0.046875 21.6856 0.630736 22.2696 1.3509 22.2696H43.0764C43.7966 22.2696 44.3803 21.6859 44.3803 20.9657Z" fill="white"/>
</svg>
