<svg width="36" height="36" viewBox="0 0 36 36" fill="none" xmlns="http://www.w3.org/2000/svg">
<path d="M32.582 17.5837V8.99345C32.583 7.24692 31.8994 5.56973 30.6781 4.32221L28.3774 2.0195C27.5762 1.19604 26.4766 0.73117 25.3282 0.730469H25.3183C24.1663 0.730118 23.0625 1.19405 22.2562 2.01751L18.8031 5.50951L17.0696 3.99296C16.6806 3.64431 16.1764 3.45245 15.6542 3.4542C15.0816 3.45724 14.5332 3.68675 14.1291 4.09269L13.9228 4.29917L13.231 3.60082C11.8637 2.21405 9.99819 1.43338 8.0516 1.43338C6.10502 1.43338 4.23939 2.21405 2.87208 3.60082C0.0231088 6.49864 0.0231088 11.148 2.87208 14.0457L3.57986 14.7621L3.54294 14.799C2.69546 15.6633 2.69546 17.0476 3.54294 17.9119L20.6781 35.241C20.8843 35.4512 21.1663 35.5696 21.4607 35.5696C21.755 35.5696 22.037 35.4512 22.2432 35.241L35.5506 21.7919C35.7706 21.5656 35.8893 21.2595 35.8796 20.9439C35.8705 20.6287 35.7293 20.3319 35.4908 20.1258L32.582 17.5837ZM4.97835 13.3385L4.28658 12.6401C2.20297 10.5218 2.20297 7.12205 4.28658 5.00372C5.27938 3.99589 6.63442 3.42848 8.04856 3.42848C9.46259 3.42848 10.8178 3.99589 11.8106 5.00372L12.5223 5.71903L4.97835 13.3385ZM30.5884 15.8277L20.3092 6.82637L23.6735 3.42415C24.1054 2.97869 24.699 2.72685 25.3193 2.7258C25.9368 2.72826 26.5273 2.9801 26.957 3.42415L29.2616 5.73388C30.1117 6.60527 30.5865 7.77551 30.5844 8.99333L30.5884 15.8277Z" fill="white"/>
</svg>
