<svg width="51" height="37" viewBox="0 0 51 37" fill="none" xmlns="http://www.w3.org/2000/svg">
<path d="M49.0787 9.24431L44.6678 13.6552L37.5128 6.50011L41.9236 2.08924L40.7453 0.910889L35.7452 5.91094L31.8227 9.83348H19.1792L15.2567 5.91094L10.2566 0.910889L9.07829 2.08924L13.4892 6.50011L6.3341 13.6552L1.92322 9.24431L0.744873 10.4227L5.74493 15.4227L9.91164 19.5894L14.3283 23.9828L13.6617 24.6495C12.6505 25.6495 12.6416 27.2799 13.6416 28.2911C13.6482 28.2978 13.6549 28.3045 13.6617 28.3112C14.1259 28.7712 14.7468 29.039 15.4 29.0612C15.4241 29.7132 15.6966 30.3312 16.1617 30.7887C16.6262 31.2484 17.2469 31.5162 17.9001 31.5387C17.9255 32.1917 18.2002 32.8103 18.6676 33.2671C19.132 33.7267 19.7528 33.9946 20.4059 34.0171C20.43 34.6691 20.7025 35.2871 21.1676 35.7446C22.1855 36.7502 23.823 36.7502 24.841 35.7446L25.501 35.0837L26.161 35.7396C27.178 36.7547 28.8252 36.7532 29.8403 35.7362C30.3012 35.2745 30.5718 34.6564 30.5985 34.0046C31.2527 33.9809 31.8737 33.7113 32.3377 33.2496C32.8026 32.7892 33.0747 32.1691 33.0985 31.5154C33.7528 31.4914 34.3739 31.2215 34.8377 30.7595C35.3026 30.2992 35.5747 29.6791 35.5986 29.0253C37.0291 28.976 38.1487 27.7763 38.0992 26.3457C38.0765 25.6878 37.8042 25.0631 37.3378 24.5986L36.7061 23.9695L41.0886 19.5869L45.2553 15.4202L50.2554 10.4202L49.0787 9.24431ZM7.51244 14.8335L14.6675 7.67846L17.6559 10.6668L10.5008 17.8219L7.51244 14.8335ZM16.1675 27.1262C15.7992 27.4941 15.2025 27.4941 14.8342 27.1262C14.4766 26.7737 14.4724 26.198 14.8249 25.8404C14.8279 25.8373 14.8311 25.8342 14.8342 25.8311L15.5117 25.1595L16.8342 26.4662L16.1675 27.1262ZM18.6567 29.607C18.2889 29.9664 17.7012 29.9657 17.3342 29.6054C16.9764 29.2518 16.9729 28.6751 17.3265 28.3172C17.3291 28.3146 17.3316 28.312 17.3342 28.3095L18.0084 27.6428L19.3234 28.9495L18.6567 29.607ZM21.1676 32.0837C20.7989 32.4507 20.2029 32.4507 19.8342 32.0837C19.4766 31.7312 19.4725 31.1556 19.825 30.798C19.828 30.7948 19.8311 30.7917 19.8342 30.7887L20.5059 30.122L21.8201 31.4287L21.1676 32.0837ZM23.6676 34.5621C23.2997 34.9247 22.7089 34.9247 22.3409 34.5621C21.9833 34.2096 21.9792 33.6339 22.3317 33.2763C22.3347 33.2732 22.3378 33.2701 22.3409 33.2671L23.0076 32.6046L24.3218 33.9112L23.6676 34.5621ZM36.169 27.0866C36.1674 27.0881 36.166 27.0896 36.1644 27.0912H36.1677C35.8015 27.4547 35.2106 27.4547 34.8444 27.0912L33.5944 25.8461C33.2683 25.5212 32.7405 25.5222 32.4156 25.8482C32.0907 26.1743 32.0917 26.7021 32.4177 27.027L33.6677 28.272C34.0293 28.631 34.0313 29.2151 33.6723 29.5766C33.6707 29.5782 33.6693 29.5796 33.6677 29.5812C33.3015 29.9447 32.7106 29.9447 32.3444 29.5812L31.0944 28.3362C30.7683 28.0113 30.2405 28.0122 29.9156 28.3383C29.5907 28.6643 29.5916 29.1921 29.9177 29.517L31.1677 30.762C31.5293 31.121 31.5312 31.7052 31.1723 32.0666C31.1707 32.0682 31.1693 32.0697 31.1677 32.0712C30.8014 32.4348 30.2106 32.4348 29.8443 32.0712L28.5943 30.8262C28.2683 30.5013 27.7405 30.5022 27.4156 30.8283C27.0907 31.1543 27.0916 31.6821 27.4177 32.007L28.6677 33.2521C29.0292 33.611 29.0312 34.1952 28.6722 34.5567C28.6707 34.5582 28.6692 34.5597 28.6677 34.5612C28.301 34.9245 27.7102 34.9245 27.3435 34.5612L11.6808 19.0002L19.1809 11.5002H21.8568L15.74 17.7602C15.421 18.0867 15.424 18.6091 15.7467 18.9319C16.7795 19.975 18.1663 20.5924 19.6326 20.6619C21.108 20.7401 22.5473 20.1878 23.5918 19.1427C23.6287 19.1063 23.6618 19.0664 23.6909 19.0236L23.9926 18.5811C25.7921 19.9998 28.1379 20.5261 30.371 20.0119L36.1644 25.782C36.5259 26.1409 36.528 26.7251 36.169 27.0866ZM35.5319 22.7961L32.036 19.3144L32.6677 18.8336C32.6974 18.8104 32.7252 18.7851 32.751 18.7577L33.5844 17.9244L32.406 16.7461L31.6135 17.5386L30.8927 18.0819C28.6677 19.0337 26.0856 18.5019 24.4176 16.7486C24.0922 16.423 23.5646 16.423 23.2391 16.7483C23.2024 16.785 23.1693 16.8249 23.1401 16.8677L22.3526 18.0202C21.6404 18.6944 20.6837 19.0484 19.7042 19.0002C18.9382 18.9608 18.1975 18.7123 17.5625 18.2819L24.1851 11.5002H31.8227L39.3228 19.0002L35.5319 22.7961ZM40.5011 17.8219L33.346 10.6668L36.3344 7.67846L43.4895 14.8335L40.5011 17.8219Z" fill="white"/>
</svg>
