<svg width="17" height="23" viewBox="0 0 17 23" fill="none" xmlns="http://www.w3.org/2000/svg">
<path d="M10.1676 15.5002C13.8478 15.496 16.8301 12.5137 16.8343 8.83342C16.8343 8.37321 16.4612 8.00008 16.001 8.00008H14.3343C12.418 8.00112 10.5955 8.82915 9.33423 10.2718V7.16674H10.1676C13.3877 7.16309 15.9973 4.55348 16.001 1.33334C16.001 0.873129 15.6278 0.5 15.1676 0.5H13.5009C11.4502 0.503229 9.55174 1.58314 8.50089 3.3442C7.45005 1.58314 5.55159 0.503229 3.50085 0.5H1.83416C1.37395 0.5 1.00082 0.873129 1.00082 1.33334C1.00447 4.55348 3.61408 7.16309 6.83421 7.16674H7.66755V10.2718C6.40629 8.82915 4.58377 8.00112 2.6675 8.00008H1.00082C0.540609 8.00008 0.16748 8.37321 0.16748 8.83342C0.171647 12.5137 3.15397 15.496 6.83421 15.5002H7.66755V16.8218L2.3225 22.1669H4.67919L8.50089 18.3452L12.3226 22.1669H14.6793L9.33423 16.8218V15.5002H10.1676ZM14.3343 9.66676H15.0985C14.6886 12.071 12.6065 13.8305 10.1676 13.8335H9.4034C9.8132 11.4293 11.8953 9.66978 14.3343 9.66676ZM13.5009 2.16668H14.2509C13.8525 4.10556 12.147 5.49786 10.1676 5.50005H9.41757C9.81591 3.56118 11.5215 2.16887 13.5009 2.16668ZM6.83421 5.50005C4.85482 5.49786 3.14928 4.10556 2.75084 2.16668H3.50085C5.48024 2.16887 7.18578 3.56118 7.58422 5.50005H6.83421ZM6.83421 13.8335C4.39533 13.8305 2.31323 12.071 1.90333 9.66676H2.6675C5.10638 9.66978 7.18848 11.4293 7.59838 13.8335H6.83421Z" fill="white"/>
</svg>
